<svg width="919" height="387" viewBox="0 0 919 387" fill="none" xmlns="http://www.w3.org/2000/svg">
  <rect width="919" height="387" fill="white"/>
  <path d="M502.741 301C501.386 299.392 499.614 298.217 497.936 296.959C496.225 295.739 494.492 294.553 492.753 293.372C489.259 291.033 485.703 288.788 482.165 286.52C478.615 284.264 475.026 282.074 471.443 279.885C467.871 277.673 464.277 275.5 460.666 273.355C446.239 264.757 431.673 256.43 416.947 248.47C402.192 240.559 387.265 233.048 372.133 226.174C364.605 222.664 357.156 219.006 349.573 215.58C341.99 212.193 334.207 209.111 326.085 207.387C324.074 206.949 321.991 206.666 319.903 206.344C317.842 206.128 315.781 205.84 313.692 205.762C309.525 205.48 305.348 205.541 301.193 205.834C292.904 206.439 284.621 208.085 277.094 211.505C273.344 213.224 269.828 215.43 266.806 218.158C263.778 220.868 261.289 224.172 259.828 227.875C258.39 231.579 258.134 235.681 259.256 239.439C260.401 243.187 262.712 246.552 265.728 249.168C268.7 251.846 272.289 253.836 276.055 255.355C279.827 256.874 283.816 257.916 287.86 258.609C295.971 259.95 304.304 260.078 312.559 259.385C329.113 258.054 345.357 253.802 361.161 248.564C369.1 245.897 376.816 242.876 384.443 239.539C392.076 236.213 399.559 232.549 406.869 228.552C421.524 220.602 435.595 211.572 449.478 202.137C463.41 192.779 477.054 182.834 491.381 173.743C498.558 169.219 505.963 164.995 513.674 161.331C521.412 157.728 529.512 154.751 537.995 153.16C542.228 152.356 546.561 151.962 550.922 152.073C555.277 152.151 559.677 152.833 563.921 154.352C568.076 155.954 572.326 158.46 574.853 162.911C576.126 165.09 576.759 167.806 576.487 170.489C576.203 173.178 575.02 175.689 573.426 177.695C570.17 181.715 565.743 184.032 561.365 185.512C556.949 186.981 552.427 187.657 547.966 187.862C539.05 188.322 530.228 187.058 521.851 185.384C517.507 184.464 513.285 183.383 509.096 182.031C504.913 180.667 500.78 179.037 496.764 177.097C488.72 173.255 481.215 167.906 475.015 161.281C468.816 154.657 463.955 146.873 460.522 138.702C457.055 130.531 454.711 122.083 453.005 113.646L462.622 113.318C461.472 121.955 459.333 130.581 455.905 138.824C452.522 147.073 447.539 154.801 441.312 161.331C435.079 167.861 427.613 173.139 419.602 176.958C411.597 180.811 403.147 183.411 394.626 185.09L391.426 185.689L388.248 186.199C386.093 186.521 383.882 186.787 381.727 186.992C377.377 187.38 372.971 187.535 368.544 187.253C364.116 186.964 359.656 186.166 355.356 184.569C353.206 183.788 351.112 182.757 349.162 181.426C347.223 180.096 345.395 178.488 344.034 176.443C342.646 174.441 341.785 171.98 341.751 169.519C341.707 167.046 342.529 164.679 343.818 162.778C345.079 160.838 346.779 159.319 348.612 158.116C350.451 156.913 352.434 156.02 354.467 155.322C358.545 153.969 362.794 153.382 367.033 153.298C371.277 153.188 375.521 153.598 379.682 154.379C383.86 155.133 387.932 156.309 391.97 157.639C395.959 158.931 399.925 160.599 403.781 162.323C411.469 165.899 418.908 170.001 426.129 174.419C440.595 183.228 454.466 192.862 468.493 202.031C475.476 206.666 482.52 211.156 489.631 215.508C496.703 219.915 503.958 223.978 511.241 227.953C525.834 235.836 540.856 242.948 556.455 248.752C560.438 250.227 564.315 251.568 568.298 252.827C572.276 254.091 576.281 255.271 580.342 256.242C588.436 258.282 596.685 259.745 605.002 260.322C613.307 260.898 621.712 260.593 629.789 258.897C633.828 258.071 637.761 256.813 641.438 255.122C645.121 253.448 648.521 251.214 651.265 248.458C653.999 245.709 655.982 242.35 656.698 238.813C657.454 235.276 656.815 231.651 655.282 228.452C654.526 226.844 653.499 225.336 652.299 223.967C651.121 222.581 649.754 221.329 648.271 220.209C645.332 217.936 641.927 216.184 638.35 214.837C631.178 212.115 623.312 211.067 615.451 210.896C611.518 210.779 607.551 210.957 603.585 211.3C599.63 211.611 595.636 212.159 591.73 212.814C584.158 214.188 576.353 216.478 568.682 219.1C560.988 221.739 553.333 224.738 545.766 228.036C530.59 234.555 515.679 242 500.897 249.739C486.114 257.494 471.482 265.643 456.961 274.036C449.722 278.272 442.428 282.44 435.307 286.881C431.707 289.048 428.135 291.26 424.613 293.555C422.863 294.714 421.085 295.839 419.369 297.048C418.502 297.646 417.658 298.261 416.824 298.899C416.008 299.548 415.152 300.174 414.502 301C415.524 299.121 417.108 297.624 418.558 296.089C420.052 294.575 421.563 293.084 423.135 291.654C426.274 288.799 429.462 286.005 432.701 283.266C439.251 277.895 445.867 272.589 452.683 267.561C466.288 257.456 480.354 247.976 494.847 239.112C509.352 230.265 524.307 222.077 539.878 214.865C547.688 211.317 555.638 207.963 563.876 205.141C567.998 203.733 572.176 202.42 576.464 201.355C578.609 200.812 580.77 200.313 582.964 199.87C584.081 199.67 585.125 199.448 586.308 199.271C587.442 199.099 588.675 198.883 589.675 198.778L591.241 198.583L591.752 198.523L592.164 198.484L592.991 198.406L596.297 198.123C598.519 198.023 600.724 197.863 602.952 197.863C607.396 197.78 611.868 197.99 616.329 198.5C625.234 199.526 634.155 201.788 642.36 205.995C646.449 208.096 650.343 210.724 653.715 214.028C655.404 215.663 656.965 217.47 658.293 219.46C659.626 221.439 660.798 223.563 661.593 225.863C663.231 230.414 663.526 235.598 662.015 240.193C660.576 244.8 657.709 248.719 654.271 251.652C650.86 254.656 646.899 256.763 642.855 258.393C638.8 260.022 634.589 261.081 630.361 261.852C621.884 263.293 613.318 263.526 604.829 263.055C587.842 262.151 571.037 258.903 554.638 254.457C538.184 249.939 522.123 243.735 507.097 235.625C499.547 231.634 492.303 227.138 485.148 222.548C478.026 217.908 471.127 212.969 464.327 207.947C450.756 197.841 437.795 187.119 424.191 177.341C417.363 172.501 410.353 167.906 402.942 164.025C395.52 160.25 387.698 156.974 379.488 155.35C375.394 154.496 371.222 154.008 367.039 154.03C362.872 154.108 358.667 154.745 354.845 156.336C351.051 157.872 347.568 160.499 345.851 163.948C345.012 165.666 344.712 167.54 345.001 169.269C345.29 171.004 346.145 172.584 347.368 173.865C349.806 176.481 353.434 177.973 357.134 178.909C360.883 179.824 364.844 180.124 368.822 180.19C372.81 180.207 376.838 179.946 380.86 179.397C382.888 179.109 384.849 178.788 386.843 178.411L389.876 177.79L392.859 177.097C408.675 173.355 423.707 166.315 434.301 154.773C439.617 149.047 443.662 142.267 446.734 135.01C449.795 127.726 451.683 119.899 452.944 111.916L457.055 86L462.566 111.589C464.421 119.583 466.605 127.432 469.788 134.733C472.982 142.017 477.015 148.808 482.315 154.518C492.825 166.037 508.013 172.823 523.701 176.515C531.773 178.416 539.761 179.663 547.722 179.636C549.705 179.636 551.666 179.541 553.599 179.325C555.532 179.148 557.449 178.865 559.282 178.405C562.932 177.518 566.454 176.082 568.793 173.715C569.948 172.546 570.77 171.182 571.115 169.691C571.431 168.211 571.309 166.586 570.62 165.034C569.265 161.907 566.098 159.335 562.526 157.794C558.932 156.181 554.877 155.494 550.822 155.316C546.755 155.155 542.644 155.577 538.6 156.342C536.572 156.708 534.567 157.201 532.573 157.733C531.573 157.999 530.601 158.31 529.617 158.593C528.629 158.92 527.584 159.252 526.656 159.596C522.768 161.026 518.951 162.661 515.224 164.502C507.758 168.166 500.714 172.695 493.786 177.368C479.982 186.842 466.76 197.275 453.083 207.231C446.234 212.193 439.267 217.021 432.123 221.622C424.957 226.174 417.674 230.586 410.147 234.577C402.636 238.597 394.937 242.283 387.087 245.62C379.232 248.946 371.149 251.846 363.061 254.39C354.934 256.94 346.662 259.058 338.285 260.71C329.907 262.356 321.419 263.554 312.853 263.936C304.303 264.368 295.643 263.964 287.166 262.273C282.933 261.408 278.75 260.172 274.761 258.415C270.789 256.641 266.939 254.412 263.712 251.363C260.445 248.386 257.879 244.5 256.673 240.154C255.49 235.792 255.918 231.091 257.556 226.972C259.234 222.847 262.006 219.294 265.273 216.434C268.539 213.556 272.272 211.284 276.194 209.532C284.033 205.951 292.543 204.227 301.031 203.573C305.287 203.218 309.553 203.251 313.803 203.362C315.931 203.412 318.064 203.539 320.208 203.639C322.302 203.811 324.424 203.883 326.574 204.121C330.852 204.532 335.124 205.081 339.357 205.868C343.601 206.594 347.817 207.486 351.995 208.523C360.367 210.546 368.544 213.252 376.416 216.583C380.36 218.224 384.215 220.065 388.037 221.949C391.859 223.829 395.659 225.758 399.42 227.742C406.931 231.734 414.341 235.886 421.613 240.265C436.201 248.935 450.367 258.254 464.088 268.171C467.51 270.66 470.915 273.177 474.299 275.727C477.665 278.294 480.981 280.927 484.276 283.588C487.581 286.232 490.798 288.998 493.97 291.809C495.553 293.217 497.114 294.658 498.619 296.155C500.086 297.668 501.691 299.132 502.747 300.989L502.741 301Z" fill="url(#paint0_linear_0_1)"/>
  <defs>
    <linearGradient id="paint0_linear_0_1" x1="430.112" y1="314.975" x2="506.722" y2="104.04" gradientUnits="userSpaceOnUse">
      <stop stop-color="#D49546"/>
      <stop offset="0.09" stop-color="#68421D"/>
      <stop offset="0.29" stop-color="#D49546"/>
      <stop offset="0.33" stop-color="#D5994E"/>
      <stop offset="0.54" stop-color="#DEB380"/>
      <stop offset="0.64" stop-color="#DAA769"/>
      <stop offset="0.8" stop-color="#D49546"/>
      <stop offset="0.89" stop-color="#8B5D2A"/>
      <stop offset="0.94" stop-color="#68421D"/>
      <stop offset="1" stop-color="#B9803C"/>
    </linearGradient>
  </defs>
</svg>
