<svg width="233" height="233" viewBox="0 0 233 233" fill="none" xmlns="http://www.w3.org/2000/svg">
  <circle cx="116.5" cy="116.5" r="116.5" fill="white" />
  <mask id="mask0_417_283" style="mask-type:alpha" maskUnits="userSpaceOnUse" x="0" y="0" width="233" height="233">
    <circle cx="116.5" cy="116.5" r="116.5" fill="#C87D83" />
  </mask>
  <g mask="url(#mask0_417_283)">
    <path
      d="M124.285 157.539C124.285 157.085 123.663 163.667 123.663 168.546C123.663 173.426 123.538 194.986 122.294 204.291C121.049 213.596 123.787 230.39 123.787 231.071C123.787 231.752 126.401 208.149 126.899 197.482C127.397 186.816 126.152 170.589 125.654 167.071C125.654 167.071 124.285 157.993 124.285 157.653V157.539Z"
      fill="#7C223A" />
    <path
      d="M76.9894 75.2695C77.2383 73.1135 77.4872 70.844 77.4872 68.6879C77.4872 66.5319 78.9808 60.1773 78.7319 56.6596C78.4829 53.1418 76.7405 44.4042 75.7448 36.6879C75.7448 36.6879 71.2641 53.1418 71.5131 60.9716C71.762 68.6879 76.4915 84.0071 76.7405 85.7092C76.9894 87.4113 76.7405 77.4255 76.9894 75.383V75.2695Z"
      fill="#7C223A" />
    <path
      d="M153.907 32.1489C153.907 31.2411 151.169 39.9787 150.173 44.1773C149.178 48.2624 149.924 47.695 148.68 51.8936C147.435 56.0922 145.693 61.766 145.693 62.6738C145.693 63.5816 146.564 74.1348 146.564 76.1773C146.564 78.2199 146.564 78.4468 147.062 79.695C147.435 80.9433 147.684 81.3972 148.555 82.5319C149.427 83.6667 149.053 84.0071 150.049 86.0497C151.045 88.0922 150.796 87.1844 151.791 89C152.787 90.8156 152.787 91.6099 153.161 93.9929C153.534 96.3759 160.877 104.66 160.877 104.66C160.877 104.66 158.637 96.1489 156.894 86.2766C155.152 76.4043 156.148 72.2057 155.65 64.8298C155.152 57.5674 153.907 44.1773 154.156 38.2766C154.156 38.2766 153.907 32.9433 153.907 32.0355V32.1489Z"
      fill="#7C223A" />
    <path
      d="M242.774 224.83V-7H152.289C152.289 -6.65957 152.289 -6.43262 152.289 -6.43262C152.289 -6.43262 164.736 -5.75177 168.967 1.85106C173.199 9.34042 170.959 40.6596 171.208 55.9787C171.457 71.2979 177.182 83.2128 177.68 92.6312C178.178 102.05 180.667 145.397 181.04 146.759C181.413 148.007 183.903 162.872 183.903 166.277C183.903 169.681 183.28 175.468 182.285 176.83C181.289 178.191 172.701 183.298 171.581 184.433C170.336 185.567 170.212 184.66 170.212 183.865C170.212 183.071 170.212 182.73 170.212 182.73C170.212 182.73 169.341 182.957 168.345 183.298C167.474 183.638 167.349 182.05 168.096 180.461C168.843 178.986 170.087 177.624 170.087 177.624L171.581 175.809C171.581 175.809 170.087 176.376 169.59 175.014C169.092 173.766 169.59 171.496 169.838 170.702C169.838 169.908 171.083 164.915 170.71 161.057C170.585 158.447 170.461 154.589 170.461 151.979C170.212 156.177 169.092 165.028 164.984 173.766C159.259 186.248 153.783 218.929 151.294 233.227C148.804 247.525 152.289 251.383 148.057 272.262C146.439 280.433 144.075 288.943 141.71 296.773H343.09V224.603H242.774V224.83Z"
      fill="#7C223A" />
    <path
      d="M94.4141 258.986C95.4098 247.411 96.6544 242.532 93.1695 230.05C89.6845 217.567 79.2296 181.255 78.6073 175.922C78.1095 172.064 77.2383 171.27 77.1138 171.156C76.616 171.156 75.8692 170.929 75.8692 170.248C75.8692 169.113 74.6245 150.277 74.6245 150.277C74.6245 150.277 70.7662 145.17 69.0237 142.447C67.2812 139.61 68.028 116.915 67.9036 116.234C64.2942 95.695 58.4444 80.8298 56.5775 65.6241C55.0839 53.2553 56.8264 32.7163 57.5732 19.7801C58.3199 6.84397 62.4272 -2.91489 66.7834 -5.6383C67.6546 -6.20567 68.6504 -6.65957 69.7705 -7H-0.675339V148.461L-110.949 -7H-215V297H-110.949V144.149L-0.799805 297H104.869C102.38 290.986 93.5429 268.972 94.2897 259.099L94.4141 258.986Z"
      fill="#7C223A" />
  </g>
</svg>