<svg width="654" height="460" viewBox="0 0 654 460" fill="none" xmlns="http://www.w3.org/2000/svg">
  <rect x="308" width="136" height="185" fill="white"/>
  <path d="M47.3121 174.011C32.7865 165.998 21.3043 154.876 12.7964 140.715C4.21936 126.554 0 110.596 0 92.9118C0 75.2275 4.21936 59.2011 12.7964 45.0398C21.3043 30.8785 32.7865 19.8258 47.3121 11.8817C61.7686 3.93753 77.7468 0 95.1084 0C112.47 0 128.379 3.93753 142.766 11.8817C157.154 19.8258 168.567 30.8785 177.005 45.0398C185.444 59.2011 189.663 75.1584 189.663 92.9118C189.663 110.665 185.444 126.623 177.005 140.784C168.567 154.945 157.085 165.998 142.628 174.08C128.102 182.093 112.263 186.1 95.1084 186.1C77.9543 186.1 61.8378 182.093 47.3121 174.08V174.011ZM121.67 122.202C127.895 114.948 131.077 105.208 131.077 92.9118C131.077 80.6157 127.964 70.5992 121.67 63.3458C115.444 56.0925 106.591 52.5004 95.1084 52.5004C83.6262 52.5004 74.4958 56.0925 68.2705 63.3458C62.0453 70.5992 58.8635 80.4775 58.8635 92.9118C58.8635 105.346 61.9761 114.948 68.2705 122.202C74.4958 129.455 83.4879 133.047 95.1084 133.047C106.729 133.047 115.444 129.455 121.67 122.202Z" fill="#C87D83"/>
  <path d="M654 0L587.804 128.833V184.995H529.979V128.833L463.852 0H530.048L559.514 65.6255L588.842 0H654Z" fill="#C87D83"/>
  <path d="M95.7309 332.618H0V330.891H2.14426C8.09286 330.891 12.9347 326.055 13.0039 320.114V223.956C13.0039 218.429 7.81618 214.146 2.21343 214.146H0.0691698V212.419H34.3774C41.7094 212.419 51.4623 210.623 54.6441 209.311V231.002H52.9149V227.893C52.9149 222.436 48.6955 218.015 43.4386 217.669H24.0711V270.791H56.3733C60.9386 270.722 64.6046 266.923 64.6046 262.364V259.808H66.2646V286.956H64.6046V284.4C64.6046 279.841 61.0077 276.111 56.5809 275.972H24.1402V327.437H60.3852C78.3693 327.437 85.2863 318.042 90.5432 304.917V315.417C90.474 315.417 95.7309 332.687 95.7309 332.687V332.618Z" fill="#E5685F"/>
  <path d="M148.3 274.867C182.124 301.946 167.391 347.677 126.096 347.677C84.8021 347.677 75.395 309.96 98.5669 284.884L100.089 286.058C81.482 310.65 93.7942 341.529 123.122 341.529C152.45 341.529 167.183 305.193 140.415 283.709L109.842 259.393C101.956 253.107 99.8811 243.989 99.8811 237.841C99.8811 223.817 110.187 209.242 129.347 209.242C148.507 209.242 139.308 209.932 144.15 210.969H150.859L151.205 231.969H149.545C149.337 220.502 140.207 214.354 129.901 214.354C119.595 214.354 109.427 223.127 109.427 234.387C109.427 245.647 111.294 245.37 116.828 249.86L148.231 274.867H148.3Z" fill="#E5685F"/>
  <path d="M285.049 266.923C286.501 310.65 262.776 332.618 226.047 332.618C189.318 332.618 159.575 305.953 159.575 270.93C159.575 235.906 186.966 209.587 223.695 209.587C260.424 209.587 256.136 214.146 266.373 220.985L269.762 244.818H268.379C263.329 225.13 243.408 214.63 223.902 214.63C194.16 214.63 172.094 238.6 172.094 270.515C172.094 302.43 193.952 327.437 226.877 327.437C259.802 327.437 283.319 304.986 283.388 266.785H285.049V266.923Z" fill="#E5685F"/>
  <path d="M391.916 271.137C391.916 308.025 367.43 332.618 331.876 332.618C296.323 332.618 271.837 308.025 271.837 271.137C271.837 234.248 296.323 209.656 331.876 209.656C367.43 209.656 391.916 234.248 391.916 271.137ZM379.119 271.137C379.119 237.288 360.236 214.699 331.876 214.699C303.517 214.699 284.634 237.288 284.634 271.137C284.634 304.986 303.517 327.575 331.876 327.575C360.236 327.575 379.119 304.986 379.119 271.137Z" fill="#E5685F"/>
  <path d="M434.109 209.656C454.307 209.656 467.518 222.159 467.518 241.087C467.518 260.015 454.999 275.42 438.398 275.351C453.062 291.17 463.922 304.226 483.289 324.812C491.451 333.516 504.455 349.058 512.963 355.414C522.854 362.805 533.23 367.295 544.919 365.776V367.503C531.431 371.164 519.811 369.437 509.366 364.325C498.299 358.937 483.635 342.703 474.228 331.858C465.997 322.394 439.297 292.759 428.092 280.048C423.872 275.282 420.69 272.104 417.785 271.689V270.101C418.685 270.101 422.558 270.377 426.916 270.032C434.248 269.41 449.396 267.959 453.684 252.002C454.169 250.068 454.86 246.821 454.722 241.571C454.238 226.857 447.528 215.252 433.487 215.113H412.183V318.387C412.183 324.052 416.886 330.062 423.181 330.062H425.325V331.789H387.904V330.062H390.117C395.789 330.062 400.908 324.812 401.046 318.456V222.298C400.908 216.288 396.066 211.383 390.048 211.383H387.904V209.587H434.179L434.109 209.656Z" fill="#E5685F"/>
  <path d="M557.716 212.765C565.117 212.765 575.146 210.969 578.328 209.587V231.347H576.599V228.238C576.599 222.712 572.241 218.153 566.846 217.946H534.405V320.114C534.544 326.055 539.386 330.891 545.334 330.891H547.479V332.618H509.989V330.891H512.202C518.081 330.891 522.923 326.193 523.2 320.252V217.946H490.759C485.295 218.153 481.006 222.712 481.006 228.238V231.347H479.277V209.587C482.459 210.969 492.489 212.696 499.89 212.765H557.785H557.716Z" fill="#E5685F"/>
  <path d="M636.569 274.867C670.393 301.946 651.233 352.167 609.939 352.167C568.645 352.167 550.315 309.96 573.486 284.884L575.008 286.058C556.401 310.65 577.637 345.95 606.965 345.95C636.293 345.95 655.453 305.124 628.753 283.709L598.18 259.393C590.295 253.107 588.22 243.989 588.22 237.841C588.22 223.817 598.526 209.242 617.686 209.242C636.846 209.242 627.646 209.932 632.419 210.969H639.128L639.474 231.969H637.814C637.607 220.502 628.476 214.354 618.17 214.354C607.864 214.354 597.696 223.058 597.696 234.387C597.696 245.716 599.563 245.37 605.097 249.791L636.5 274.798L636.569 274.867Z" fill="#E5685F"/>
  <path d="M378.359 100.165C378.359 99.8888 378.013 103.895 378.013 106.866C378.013 109.836 377.944 122.961 377.252 128.626C376.56 134.29 378.082 144.514 378.082 144.929C378.082 145.343 379.534 130.975 379.811 124.481C380.088 117.988 379.396 108.109 379.119 105.968C379.119 105.968 378.359 100.441 378.359 100.234V100.165Z" fill="#C87D83"/>
  <path d="M352.074 50.0826C352.212 48.7701 352.351 47.3885 352.351 46.076C352.351 44.7635 353.181 40.895 353.042 38.7536C352.904 36.6121 351.936 31.293 351.382 26.5956C351.382 26.5956 348.892 36.6121 349.031 41.3786C349.169 46.076 351.797 55.4017 351.936 56.4379C352.074 57.4741 351.936 51.3951 352.074 50.1517V50.0826Z" fill="#C87D83"/>
  <path d="M394.821 23.8324C394.821 23.2797 393.299 28.5989 392.746 31.1548C392.192 33.6417 392.607 33.2963 391.916 35.8522C391.224 38.4081 390.256 41.8621 390.256 42.4148C390.256 42.9674 390.74 49.3918 390.74 50.6352C390.74 51.8786 390.74 52.0168 391.017 52.7767C391.224 53.5365 391.362 53.8129 391.847 54.5037C392.331 55.1945 392.123 55.4017 392.677 56.6451C393.23 57.8885 393.092 57.3359 393.645 58.4412C394.198 59.5465 394.198 60.03 394.406 61.4807C394.613 62.9313 398.694 67.9741 398.694 67.9741C398.694 67.9741 397.449 62.7932 396.481 56.7833C395.513 50.7734 396.066 48.2174 395.789 43.7273C395.513 39.3062 394.821 31.1548 394.959 27.5627C394.959 27.5627 394.821 24.3159 394.821 23.7633V23.8324Z" fill="#C87D83"/>
  <path d="M377.874 163.166C378.912 158.814 378.704 156.12 378.566 153.287C378.566 153.287 378.359 151.629 378.289 151.146C378.289 150.662 377.39 155.498 377.39 158.883C377.39 162.337 376.906 170.212 376.975 171.248C376.975 172.284 376.837 167.518 377.874 163.166Z" fill="#C87D83"/>
  <path d="M444.208 141.129V0H393.922C393.922 0.207238 393.922 0.345397 393.922 0.345397C393.922 0.345397 400.839 0.759874 403.19 5.3882C405.542 9.94744 404.297 29.0134 404.436 38.3391C404.574 47.6648 407.756 54.9182 408.032 60.6517C408.309 66.3853 409.692 92.7737 409.9 93.6026C410.107 94.3625 411.491 103.412 411.491 105.484C411.491 107.557 411.145 111.08 410.592 111.909C410.038 112.738 405.266 115.846 404.643 116.537C403.951 117.228 403.882 116.675 403.882 116.192C403.882 115.708 403.882 115.501 403.882 115.501C403.882 115.501 403.398 115.639 402.845 115.846C402.36 116.053 402.291 115.086 402.706 114.119C403.121 113.221 403.813 112.392 403.813 112.392L404.643 111.287C404.643 111.287 403.813 111.632 403.536 110.803C403.26 110.044 403.536 108.662 403.675 108.178C403.675 107.695 404.366 104.655 404.159 102.307C404.09 100.718 404.02 98.3691 404.02 96.7803C403.882 99.3362 403.26 104.724 400.977 110.044C397.795 117.642 394.752 137.537 393.368 146.241C391.985 154.945 393.922 157.294 391.57 170.004C390.671 174.978 389.357 180.159 388.042 184.926H499.959V140.991H444.208V141.129Z" fill="#C87D83"/>
  <path d="M361.758 161.922C362.311 154.876 363.003 151.906 361.066 144.307C359.129 136.708 353.319 114.603 352.973 111.356C352.697 109.007 352.212 108.524 352.143 108.455C351.866 108.455 351.451 108.317 351.451 107.902C351.451 107.211 350.76 95.7441 350.76 95.7441C350.76 95.7441 348.616 92.6355 347.647 90.9776C346.679 89.2506 347.094 75.4347 347.025 75.0203C345.019 62.5169 341.768 53.4675 340.73 44.2108C339.9 36.6812 340.869 24.1778 341.284 16.3027C341.699 8.42769 343.981 2.48686 346.402 0.828953C346.886 0.483556 347.44 0.207238 348.062 0H308.912V94.6388L247.628 0H189.802V185.064H247.628V92.0138L308.843 185.064H367.568C366.185 181.403 361.274 168.001 361.689 161.991L361.758 161.922Z" fill="#C87D83"/>
  <path d="M396.343 452.056C396.343 450.26 396.896 448.671 398.072 447.428C399.179 446.184 400.562 445.562 402.153 445.562C403.744 445.562 405.058 446.184 406.165 447.428C407.271 448.671 407.825 450.26 407.825 452.056C407.825 453.852 407.271 455.441 406.165 456.753C405.058 458.066 403.675 458.687 402.153 458.687C400.631 458.687 399.179 458.066 398.072 456.753C396.965 455.441 396.343 453.921 396.343 452.056Z" fill="#C87D83"/>
  <path d="M444.692 412.473L437.36 446.806C436.807 449.638 436.599 451.434 436.599 452.263C436.599 453.645 437.222 454.335 438.398 454.335C439.574 454.335 441.649 453.092 443.586 450.605C445.522 448.118 447.459 444.457 449.396 439.622H451.609C447.321 452.332 441.51 458.618 434.109 458.618C426.708 458.618 427.677 456.062 427.677 450.951C427.677 445.839 427.884 447.773 428.23 445.977C428.645 444.25 428.922 442.799 429.129 441.694L434.524 416.342H425.256L425.809 413.509H431.481C436.115 413.509 440.542 413.164 444.623 412.473H444.692ZM438.882 389.194C438.882 387.536 439.435 386.085 440.473 384.911C441.58 383.736 442.825 383.115 444.208 383.115C445.592 383.115 446.975 383.736 448.012 384.911C449.05 386.085 449.603 387.536 449.603 389.263C449.603 390.99 449.05 392.44 448.012 393.615C446.906 394.789 445.661 395.411 444.208 395.411C442.756 395.411 441.51 394.789 440.473 393.615C439.366 392.44 438.882 390.92 438.882 389.263V389.194Z" fill="#C87D83"/>
  <path d="M476.372 412.611L473.882 424.7L474.089 424.907C479.623 416.411 485.295 412.197 491.105 412.197C496.915 412.197 495.048 412.957 496.431 414.407C497.815 415.858 498.506 417.861 498.506 420.279C498.506 422.697 498.23 423.042 497.745 425.598L493.319 446.184C492.834 448.325 492.627 449.914 492.627 450.95C492.627 452.747 493.18 453.645 494.218 453.645C497.123 453.645 500.028 449.569 503.002 441.487H505.285C503.417 447.289 501.066 451.572 498.368 454.197C495.67 456.891 492.904 458.204 490.068 458.204C485.572 458.204 483.358 455.786 483.358 451.02C483.358 446.253 483.704 446.944 484.465 443.628L488.546 424.977C488.546 424.769 488.684 424.148 488.961 423.181C489.168 422.213 489.307 421.177 489.307 420.141C489.307 417.654 488.408 416.411 486.678 416.411C484.949 416.411 482.044 418.276 478.516 422.006C474.989 425.736 472.153 432.852 470.008 443.283L467.103 457.306H457.835L466.273 416.411H457.835L458.388 413.578H464.959C469.455 413.578 473.259 413.233 476.372 412.611Z" fill="#C87D83"/>
  <path d="M529.564 401.144L527.281 413.509H533.575L533.022 416.342H526.589L520.087 447.635C519.534 449.983 519.326 451.641 519.326 452.608C519.326 454.059 519.88 454.75 520.917 454.75C523.546 454.75 526.382 450.329 529.494 441.418H531.5C529.909 447.013 527.903 451.296 525.413 454.197C522.923 457.099 520.295 458.549 517.459 458.549C512.894 458.549 510.542 455.855 510.542 450.536C510.542 445.217 510.957 446.322 511.718 442.454L517.113 416.273H510.68L511.164 413.44H517.736L519.949 402.733C523.269 402.733 526.451 402.18 529.356 401.144H529.564Z" fill="#C87D83"/>
  <path d="M558.407 412.473L551.075 446.806C550.522 449.638 550.315 451.434 550.315 452.263C550.315 453.645 550.937 454.335 552.113 454.335C553.289 454.335 555.364 453.092 557.301 450.605C559.237 448.118 561.174 444.457 563.111 439.622H565.324C561.036 452.332 555.226 458.618 547.824 458.618C540.423 458.618 541.392 456.062 541.392 450.951C541.392 445.839 541.599 447.773 541.945 445.977C542.36 444.25 542.637 442.799 542.844 441.694L548.239 416.342H538.971L539.524 413.509H545.196C549.83 413.509 554.257 413.164 558.338 412.473H558.407ZM552.597 389.194C552.597 387.536 553.151 386.085 554.188 384.911C555.295 383.736 556.54 383.115 557.923 383.115C559.307 383.115 560.69 383.736 561.728 384.911C562.765 386.085 563.318 387.536 563.318 389.263C563.318 390.99 562.765 392.44 561.728 393.615C560.621 394.789 559.376 395.411 557.923 395.411C556.471 395.411 555.226 394.789 554.188 393.615C553.081 392.44 552.597 390.92 552.597 389.263V389.194Z" fill="#C87D83"/>
  <path d="M589.257 412.611L586.698 424.769L586.905 424.977C591.955 416.411 597.281 412.128 602.884 412.128C608.486 412.128 607.31 412.888 608.694 414.408C610.077 415.927 610.769 417.654 610.769 419.519C610.769 421.385 610.631 421.454 610.285 424.286L610.492 424.493C615.403 416.204 621.006 412.059 627.231 412.059C633.457 412.059 630.966 412.75 632.419 414.2C633.872 415.582 634.563 417.378 634.563 419.589C634.563 421.799 634.287 423.042 633.733 425.529L629.237 446.322C628.684 449.016 628.476 450.674 628.476 451.296C628.476 452.885 628.961 453.714 629.929 453.714C630.897 453.714 632.142 452.747 633.802 450.812C635.462 448.878 636.915 445.701 638.229 441.21H640.512C639.059 446.806 637.053 450.951 634.356 453.783C631.727 456.615 629.099 458.066 626.54 458.066C623.98 458.066 622.597 457.444 621.213 456.201C619.83 454.957 619.208 453.092 619.208 450.674C619.208 448.256 619.484 448.049 620.038 445.701L624.741 424.493C624.88 424.217 625.018 423.388 625.295 422.006C625.502 420.625 625.64 419.658 625.64 419.174C625.64 418.414 625.364 417.792 624.88 417.171C624.326 416.618 623.773 416.342 623.081 416.342C621.214 416.342 618.516 418.207 615.057 421.868C611.599 425.529 608.97 431.677 607.172 440.174L603.575 457.237H594.237L600.532 427.049C601.362 423.319 601.777 420.901 601.777 419.727C601.777 418.552 601.5 418.069 601.016 417.309C600.532 416.549 599.84 416.204 599.079 416.204C597.142 416.204 594.445 418.276 591.125 422.352C587.805 426.427 585.314 432.506 583.654 440.45L580.127 457.168H570.72L579.435 416.273H571.135L571.619 413.44H579.435C582.893 413.44 586.214 413.095 589.326 412.473L589.257 412.611Z" fill="#C87D83"/>
  <path d="M368.121 458.826H8.78456C6.77863 458.826 5.18773 457.237 5.18773 455.233V450.329C5.18773 448.326 6.77863 446.737 8.78456 446.737H368.052C370.058 446.737 371.649 448.326 371.649 450.329V455.233C371.649 457.237 370.058 458.826 368.052 458.826H368.121Z" fill="#E5685F"/>
  <path d="M365.631 460H11.2747C7.26282 460 4.01184 456.753 4.01184 452.747C4.01184 448.74 7.26282 445.493 11.2747 445.493H365.631C369.643 445.493 372.894 448.74 372.894 452.747C372.894 456.753 369.643 460 365.631 460ZM11.2747 447.842C8.57704 447.842 6.36361 450.053 6.36361 452.747C6.36361 455.441 8.57704 457.651 11.2747 457.651H365.631C368.329 457.651 370.542 455.441 370.542 452.747C370.542 450.053 368.329 447.842 365.631 447.842H11.2747Z" fill="#E5685F"/>
</svg>
