<svg width="515" height="377" viewBox="0 0 515 377" fill="none" xmlns="http://www.w3.org/2000/svg">
    <g clip-path="url(#clip0_385_42)">
        <path d="M37.2565 142.613C25.8181 136.046 16.7763 126.931 10.0767 115.325C3.32258 103.719 0 90.6408 0 76.1473C0 61.6539 3.32258 48.5191 10.0767 36.9131C16.7763 25.307 25.8181 16.2485 37.2565 9.7378C48.6404 3.22706 61.2226 0 74.8942 0C88.5658 0 101.094 3.22706 112.423 9.7378C123.752 16.2485 132.74 25.307 139.385 36.9131C146.03 48.5191 149.353 61.5972 149.353 76.1473C149.353 90.6974 146.03 103.776 139.385 115.382C132.74 126.988 123.698 136.046 112.314 142.67C100.876 149.237 88.4024 152.521 74.8942 152.521C61.386 152.521 48.6949 149.237 37.2565 142.67V142.613ZM95.8101 100.152C100.712 94.2076 103.218 86.2248 103.218 76.1473C103.218 66.0698 100.767 57.8606 95.8101 51.9161C90.908 45.9715 83.936 43.0275 74.8942 43.0275C65.8525 43.0275 58.6626 45.9715 53.7604 51.9161C48.8583 57.8606 46.3527 65.9566 46.3527 76.1473C46.3527 86.3381 48.8038 94.2076 53.7604 100.152C58.6626 106.097 65.7435 109.041 74.8942 109.041C84.0449 109.041 90.908 106.097 95.8101 100.152Z" fill="#C87D82"/>
        <path d="M515 0L462.874 105.587V151.615H417.338V105.587L365.266 0H417.392L440.596 53.7844L463.691 0H515Z" fill="#C87D82"/>
        <path d="M75.3844 272.602H0V271.186H1.68852C6.37282 271.186 10.1856 267.223 10.2401 262.354V183.546C10.2401 179.017 6.15494 175.507 1.74299 175.507H0.0544685V174.091H27.0709C32.8445 174.091 40.5246 172.619 43.0301 171.544V189.321H41.6684V186.773C41.6684 182.301 38.3458 178.677 34.2062 178.394H18.955V221.931H44.3919C47.9868 221.875 50.8736 218.761 50.8736 215.024V212.929H52.1809V235.179H50.8736V233.084C50.8736 229.348 48.0412 226.291 44.5553 226.177H19.0095V268.356H47.551C61.7128 268.356 67.1597 260.656 71.2993 249.899V258.505C71.2448 258.505 75.3844 272.658 75.3844 272.658V272.602Z" fill="black"/>
        <path d="M116.781 225.272C143.416 247.465 131.814 284.944 99.2961 284.944C66.7784 284.944 59.3707 254.032 77.6177 233.481L78.816 234.443C64.1639 254.598 73.8593 279.905 96.954 279.905C120.049 279.905 131.65 250.126 110.571 232.518L86.496 212.59C80.2866 207.438 78.6526 199.965 78.6526 194.926C78.6526 183.433 86.7684 171.487 101.856 171.487C116.944 171.487 109.7 172.053 113.512 172.903H118.796L119.068 190.114H117.761C117.598 180.715 110.408 175.677 102.292 175.677C94.1761 175.677 86.1692 182.867 86.1692 192.095C86.1692 201.323 87.6399 201.097 91.9973 204.777L116.726 225.272H116.781Z" fill="black"/>
        <path d="M224.465 218.761C225.609 254.598 206.926 272.602 178.003 272.602C149.08 272.602 125.659 250.748 125.659 222.044C125.659 193.341 147.228 171.77 176.151 171.77C205.074 171.77 201.697 175.507 209.758 181.112L212.427 200.644H211.338C207.362 184.509 191.675 175.903 176.315 175.903C152.893 175.903 135.518 195.549 135.518 221.705C135.518 247.861 152.73 268.356 178.657 268.356C204.584 268.356 223.103 249.956 223.158 218.648H224.465V218.761Z" fill="black"/>
        <path d="M308.619 222.214C308.619 252.447 289.337 272.602 261.34 272.602C233.343 272.602 214.061 252.447 214.061 222.214C214.061 191.982 233.343 171.827 261.34 171.827C289.337 171.827 308.619 191.982 308.619 222.214ZM298.542 222.214C298.542 194.473 283.672 175.96 261.34 175.96C239.008 175.96 224.138 194.473 224.138 222.214C224.138 249.956 239.008 268.469 261.34 268.469C283.672 268.469 298.542 249.956 298.542 222.214Z" fill="black"/>
        <path d="M341.845 171.827C357.749 171.827 368.153 182.074 368.153 197.587C368.153 213.099 358.294 225.724 345.222 225.668C356.769 238.633 365.32 249.333 380.572 266.204C386.999 273.338 397.239 286.076 403.939 291.285C411.728 297.343 419.898 301.023 429.103 299.777V301.192C418.482 304.193 409.331 302.778 401.106 298.588C392.391 294.172 380.844 280.868 373.436 271.979C366.955 264.223 345.93 239.935 337.106 229.518C333.783 225.611 331.278 223.007 328.99 222.667V221.365C329.698 221.365 332.748 221.592 336.18 221.308C341.953 220.799 353.882 219.61 357.259 206.532C357.64 204.947 358.185 202.286 358.076 197.983C357.695 185.924 352.411 176.413 341.354 176.299H324.578V260.939C324.578 265.581 328.282 270.507 333.238 270.507H334.927V271.922H305.46V270.507H307.203C311.669 270.507 315.7 266.204 315.809 260.996V182.187C315.7 177.262 311.887 173.242 307.148 173.242H305.46V171.77H341.899L341.845 171.827Z" fill="black"/>
        <path d="M439.18 174.375C445.008 174.375 452.906 172.903 455.411 171.77V189.604H454.05V187.056C454.05 182.527 450.618 178.791 446.37 178.621H420.824V262.354C420.933 267.223 424.746 271.186 429.43 271.186H431.118V272.602H401.597V271.186H403.34C407.969 271.186 411.782 267.337 412 262.468V178.621H386.454C382.151 178.791 378.774 182.527 378.774 187.056V189.604H377.413V171.77C379.918 172.903 387.816 174.318 393.644 174.375H439.234H439.18Z" fill="black"/>
        <path d="M501.274 225.272C527.909 247.465 512.821 288.624 480.304 288.624C447.786 288.624 433.352 254.032 451.599 233.481L452.797 234.443C438.145 254.598 454.867 283.528 477.961 283.528C501.056 283.528 516.144 250.069 495.119 232.518L471.044 212.59C464.834 207.438 463.2 199.965 463.2 194.926C463.2 183.433 471.316 171.487 486.404 171.487C501.492 171.487 494.247 172.053 498.006 172.903H503.289L503.562 190.114H502.254C502.091 180.715 494.901 175.677 486.785 175.677C478.669 175.677 470.663 182.81 470.663 192.095C470.663 201.38 472.133 201.097 476.491 204.72L501.219 225.215L501.274 225.272Z" fill="black"/>
        <path d="M297.943 82.0919C297.943 81.8654 297.671 85.1491 297.671 87.5836C297.671 90.018 297.616 100.775 297.071 105.417C296.527 110.06 297.725 118.439 297.725 118.778C297.725 119.118 298.869 107.342 299.087 102.02C299.305 96.6986 298.76 88.6026 298.542 86.8476C298.542 86.8476 297.943 82.3184 297.943 82.1485V82.0919Z" fill="#C87D82"/>
        <path d="M277.245 41.0459C277.354 39.9703 277.463 38.838 277.463 37.7623C277.463 36.6866 278.116 33.5161 278.007 31.7611C277.898 30.006 277.136 25.6466 276.7 21.7968C276.7 21.7968 274.739 30.006 274.848 33.9124C274.957 37.7623 277.027 45.4053 277.136 46.2545C277.245 47.1038 277.136 42.1216 277.245 41.1026V41.0459Z" fill="#C87D82"/>
        <path d="M310.906 19.5322C310.906 19.0793 309.708 23.4387 309.272 25.5334C308.837 27.5716 309.163 27.2885 308.619 29.3832C308.074 31.478 307.311 34.3088 307.311 34.7617C307.311 35.2146 307.693 40.4798 307.693 41.4989C307.693 42.518 307.693 42.6312 307.911 43.2539C308.074 43.8767 308.183 44.1032 308.564 44.6693C308.946 45.2355 308.782 45.4053 309.218 46.4244C309.654 47.4435 309.545 46.9905 309.98 47.8964C310.416 48.8022 310.416 49.1985 310.58 50.3875C310.743 51.5764 313.957 55.7093 313.957 55.7093C313.957 55.7093 312.976 51.4631 312.214 46.5376C311.451 41.6121 311.887 39.5174 311.669 35.8374C311.451 32.214 310.906 25.5334 311.015 22.5894C311.015 22.5894 310.906 19.9285 310.906 19.4756V19.5322Z" fill="#C87D82"/>
        <path d="M297.562 133.725C298.379 130.158 298.215 127.95 298.106 125.629C298.106 125.629 297.943 124.27 297.888 123.874C297.888 123.478 297.18 127.441 297.18 130.215C297.18 133.045 296.799 139.5 296.854 140.349C296.854 141.198 296.745 137.292 297.562 133.725Z" fill="#C87D82"/>
        <path d="M349.797 115.665V0H310.198C310.198 0.169845 310.198 0.283076 310.198 0.283076C310.198 0.283076 315.645 0.622766 317.497 4.41598C319.349 8.15257 318.369 23.7783 318.478 31.4214C318.586 39.0644 321.092 45.009 321.31 49.7081C321.528 54.4071 322.617 76.0341 322.781 76.7135C322.944 77.3362 324.033 84.7528 324.033 86.4513C324.033 88.1497 323.761 91.0371 323.325 91.7165C322.889 92.3958 319.131 94.9435 318.641 95.5097C318.096 96.0758 318.042 95.6229 318.042 95.2266C318.042 94.8303 318.042 94.6604 318.042 94.6604C318.042 94.6604 317.661 94.7737 317.225 94.9435C316.844 95.1134 316.789 94.3208 317.116 93.5281C317.443 92.7922 317.987 92.1128 317.987 92.1128L318.641 91.2069C318.641 91.2069 317.987 91.49 317.769 90.8106C317.552 90.1879 317.769 89.0556 317.878 88.6593C317.878 88.2629 318.423 85.7719 318.26 83.847C318.205 82.5448 318.151 80.6199 318.151 79.3178C318.042 81.4125 317.552 85.8285 315.754 90.1879C313.249 96.4155 310.852 112.721 309.763 119.854C308.673 126.988 310.198 128.913 308.346 139.33C307.638 143.406 306.603 147.652 305.569 151.559H393.699V115.551H349.797V115.665Z" fill="#C87D82"/>
        <path d="M284.87 132.706C285.306 126.931 285.851 124.497 284.326 118.269C282.801 112.041 278.225 93.9245 277.953 91.2635C277.735 89.3386 277.354 88.9423 277.299 88.8857C277.081 88.8857 276.755 88.7725 276.755 88.4328C276.755 87.8666 276.21 78.4685 276.21 78.4685C276.21 78.4685 274.521 75.9209 273.759 74.5621C272.996 73.1467 273.323 61.8237 273.269 61.484C271.689 51.2367 269.129 43.8201 268.312 36.2337C267.658 30.0626 268.421 19.8153 268.748 13.3612C269.075 6.90704 270.872 2.03814 272.778 0.679381C273.16 0.396306 273.595 0.169845 274.086 0H243.256V77.5627L194.997 0H149.462V151.672H194.997V75.4113L243.202 151.672H289.446C288.356 148.671 284.489 137.688 284.816 132.762L284.87 132.706Z" fill="#C87D82"/>
        <path d="M312.105 370.489C312.105 369.017 312.54 367.715 313.466 366.696C314.338 365.677 315.427 365.167 316.68 365.167C317.933 365.167 318.968 365.677 319.839 366.696C320.711 367.715 321.146 369.017 321.146 370.489C321.146 371.961 320.711 373.263 319.839 374.339C318.968 375.415 317.878 375.924 316.68 375.924C315.482 375.924 314.338 375.415 313.466 374.339C312.595 373.263 312.105 372.018 312.105 370.489Z" fill="#C87D82"/>
        <path d="M350.178 338.049L344.405 366.186C343.969 368.508 343.805 369.98 343.805 370.659C343.805 371.791 344.296 372.358 345.222 372.358C346.148 372.358 347.782 371.338 349.307 369.3C350.832 367.262 352.357 364.262 353.882 360.299H355.625C352.248 370.716 347.673 375.868 341.845 375.868C336.016 375.868 336.779 373.773 336.779 369.583C336.779 365.394 336.942 366.979 337.215 365.507C337.541 364.092 337.759 362.903 337.923 361.997L342.171 341.219H334.873L335.308 338.898H339.775C343.424 338.898 346.91 338.615 350.124 338.049H350.178ZM345.603 318.97C345.603 317.611 346.039 316.422 346.856 315.459C347.727 314.497 348.708 313.987 349.797 313.987C350.886 313.987 351.976 314.497 352.793 315.459C353.61 316.422 354.045 317.611 354.045 319.026C354.045 320.441 353.61 321.63 352.793 322.593C351.921 323.555 350.941 324.065 349.797 324.065C348.653 324.065 347.673 323.555 346.856 322.593C345.984 321.63 345.603 320.385 345.603 319.026V318.97Z" fill="#C87D82"/>
        <path d="M375.125 338.162L373.164 348.07L373.327 348.24C377.685 341.276 382.151 337.822 386.727 337.822C391.302 337.822 389.831 338.445 390.921 339.634C392.01 340.823 392.555 342.465 392.555 344.446C392.555 346.428 392.337 346.711 391.956 348.806L388.47 365.677C388.088 367.432 387.925 368.734 387.925 369.583C387.925 371.055 388.361 371.791 389.178 371.791C391.465 371.791 393.753 368.451 396.095 361.827H397.893C396.422 366.583 394.57 370.093 392.446 372.244C390.322 374.452 388.143 375.528 385.91 375.528C382.369 375.528 380.626 373.546 380.626 369.64C380.626 365.734 380.898 366.3 381.498 363.582L384.711 348.296C384.711 348.126 384.82 347.617 385.038 346.824C385.201 346.032 385.31 345.182 385.31 344.333C385.31 342.295 384.602 341.276 383.241 341.276C381.879 341.276 379.591 342.804 376.813 345.862C374.035 348.919 371.802 354.75 370.114 363.299L367.826 374.792H360.527L367.172 341.276H360.527L360.963 338.955H366.137C369.678 338.955 372.674 338.672 375.125 338.162Z" fill="#C87D82"/>
        <path d="M417.011 328.764L415.214 338.898H420.17L419.735 341.219H414.669L409.549 366.866C409.113 368.791 408.95 370.15 408.95 370.942C408.95 372.131 409.386 372.697 410.203 372.697C412.272 372.697 414.506 369.074 416.957 361.771H418.536C417.283 366.356 415.704 369.866 413.743 372.244C411.782 374.622 409.712 375.811 407.479 375.811C403.884 375.811 402.032 373.603 402.032 369.244C402.032 364.884 402.359 365.79 402.958 362.62L407.207 341.163H402.141L402.522 338.841H407.697L409.44 330.066C412.054 330.066 414.56 329.613 416.848 328.764H417.011Z" fill="#C87D82"/>
        <path d="M439.724 338.049L433.951 366.186C433.515 368.508 433.352 369.98 433.352 370.659C433.352 371.791 433.842 372.358 434.768 372.358C435.694 372.358 437.328 371.338 438.853 369.3C440.378 367.262 441.903 364.262 443.428 360.299H445.171C441.794 370.716 437.219 375.868 431.391 375.868C425.563 375.868 426.325 373.773 426.325 369.583C426.325 365.394 426.489 366.979 426.761 365.507C427.088 364.092 427.306 362.903 427.469 361.997L431.718 341.219H424.419L424.855 338.898H429.321C432.97 338.898 436.456 338.615 439.67 338.049H439.724ZM435.149 318.97C435.149 317.611 435.585 316.422 436.402 315.459C437.273 314.497 438.254 313.987 439.343 313.987C440.433 313.987 441.522 314.497 442.339 315.459C443.156 316.422 443.592 317.611 443.592 319.026C443.592 320.441 443.156 321.63 442.339 322.593C441.467 323.555 440.487 324.065 439.343 324.065C438.199 324.065 437.219 323.555 436.402 322.593C435.53 321.63 435.149 320.385 435.149 319.026V318.97Z" fill="#C87D82"/>
        <path d="M464.017 338.162L462.002 348.126L462.166 348.296C466.142 341.276 470.336 337.766 474.748 337.766C479.16 337.766 478.234 338.389 479.323 339.634C480.412 340.88 480.957 342.295 480.957 343.824C480.957 345.352 480.848 345.409 480.576 347.73L480.739 347.9C484.607 341.106 489.018 337.709 493.921 337.709C498.823 337.709 496.862 338.275 498.006 339.464C499.15 340.596 499.694 342.068 499.694 343.88C499.694 345.692 499.476 346.711 499.041 348.749L495.5 365.79C495.065 367.998 494.901 369.357 494.901 369.866C494.901 371.169 495.282 371.848 496.045 371.848C496.808 371.848 497.788 371.055 499.095 369.47C500.402 367.885 501.546 365.281 502.581 361.601H504.379C503.235 366.187 501.655 369.583 499.531 371.905C497.461 374.226 495.391 375.415 493.376 375.415C491.361 375.415 490.271 374.905 489.182 373.886C488.093 372.867 487.602 371.338 487.602 369.357C487.602 367.375 487.82 367.206 488.256 365.281L491.96 347.9C492.069 347.673 492.178 346.994 492.396 345.862C492.559 344.729 492.668 343.937 492.668 343.54C492.668 342.918 492.45 342.408 492.069 341.899C491.633 341.446 491.197 341.219 490.653 341.219C489.182 341.219 487.058 342.748 484.334 345.748C481.611 348.749 479.541 353.788 478.125 360.751L475.292 374.735H467.939L472.896 349.995C473.549 346.937 473.876 344.956 473.876 343.993C473.876 343.031 473.658 342.635 473.277 342.012C472.896 341.389 472.351 341.106 471.752 341.106C470.227 341.106 468.103 342.804 465.488 346.145C462.874 349.485 460.913 354.467 459.605 360.978L456.828 374.679H449.42L456.283 341.163H449.747L450.128 338.841H456.283C459.006 338.841 461.621 338.558 464.072 338.049L464.017 338.162Z" fill="#C87D82"/>
        <path d="M289.882 376.038H6.91751C5.33792 376.038 4.08514 374.735 4.08514 373.094V369.074C4.08514 367.432 5.33792 366.13 6.91751 366.13H289.827C291.407 366.13 292.659 367.432 292.659 369.074V373.094C292.659 374.735 291.407 376.038 289.827 376.038H289.882Z" fill="url(#paint0_linear_385_42)"/>
        <path d="M287.921 377H8.87838C5.7192 377 3.15918 374.339 3.15918 371.055C3.15918 367.772 5.7192 365.111 8.87838 365.111H287.921C291.08 365.111 293.64 367.772 293.64 371.055C293.64 374.339 291.08 377 287.921 377ZM8.87838 367.036C6.7541 367.036 5.01111 368.847 5.01111 371.055C5.01111 373.263 6.7541 375.075 8.87838 375.075H287.921C290.045 375.075 291.788 373.263 291.788 371.055C291.788 368.847 290.045 367.036 287.921 367.036H8.87838Z" fill="url(#paint1_linear_385_42)"/>
    </g>
    <defs>
        <linearGradient id="paint0_linear_385_42" x1="4.08514" y1="371.112" x2="292.714" y2="371.112" gradientUnits="userSpaceOnUse">
            <stop stop-color="#FDE578"/>
            <stop offset="0.1" stop-color="#FFF9D1"/>
            <stop offset="0.2" stop-color="#FDE47F"/>
            <stop offset="0.3" stop-color="#E6BF36"/>
            <stop offset="0.4" stop-color="#906D05"/>
            <stop offset="0.5" stop-color="#896601"/>
            <stop offset="0.6" stop-color="#B38511"/>
            <stop offset="0.7" stop-color="#C69319"/>
            <stop offset="0.9" stop-color="#EDD582"/>
            <stop offset="1" stop-color="#F1DC8D"/>
        </linearGradient>
        <linearGradient id="paint1_linear_385_42" x1="3.15918" y1="371.112" x2="293.64" y2="371.112" gradientUnits="userSpaceOnUse">
            <stop stop-color="#FDEC99"/>
            <stop offset="0.1" stop-color="#FEF5C3"/>
            <stop offset="0.2" stop-color="#FFF9D1"/>
            <stop offset="0.7" stop-color="#C8951A"/>
            <stop offset="0.9" stop-color="#DCB954"/>
            <stop offset="1" stop-color="#F1DC8D"/>
        </linearGradient>
        <clipPath id="clip0_385_42">
            <rect width="515" height="377" fill="white"/>
        </clipPath>
    </defs>
</svg>
