<svg width="407" height="215" viewBox="0 0 407 215" fill="none" xmlns="http://www.w3.org/2000/svg">
  <path d="M246.741 215C245.386 213.392 243.614 212.217 241.936 210.959C240.225 209.739 238.492 208.553 236.753 207.372C233.259 205.033 229.703 202.788 226.165 200.52C222.615 198.264 219.026 196.074 215.443 193.885C211.871 191.673 208.277 189.5 204.666 187.355C190.239 178.757 175.673 170.43 160.947 162.47C146.192 154.559 131.265 147.048 116.133 140.174C108.605 136.664 101.156 133.006 93.5729 129.58C85.9901 126.193 78.2072 123.111 70.0855 121.387C68.0745 120.949 65.9913 120.666 63.9025 120.344C61.8415 120.128 59.7806 119.84 57.6918 119.762C53.5254 119.48 49.3479 119.541 45.1926 119.834C36.9042 120.439 28.6214 122.085 21.0941 125.505C17.3443 127.224 13.8279 129.43 10.8058 132.158C7.77823 134.868 5.28949 138.172 3.82847 141.875C2.38967 145.579 2.13413 149.681 3.25629 153.439C4.40066 157.187 6.71163 160.552 9.72811 163.168C12.7001 165.846 16.2888 167.836 20.0552 169.355C23.8272 170.874 27.8159 171.916 31.8601 172.609C39.9707 173.95 48.3035 174.078 56.5586 173.385C73.1131 172.054 89.3565 167.802 105.161 162.564C113.1 159.897 120.816 156.876 128.443 153.539C136.076 150.213 143.559 146.549 150.869 142.552C165.524 134.602 179.595 125.572 193.478 116.137C207.41 106.779 221.054 96.8343 235.381 87.7429C242.558 83.2194 249.963 78.9953 257.674 75.331C265.412 71.7277 273.512 68.7508 281.995 67.1598C286.228 66.356 290.561 65.9625 294.922 66.0733C299.277 66.1509 303.677 66.8327 307.921 68.3516C312.076 69.9537 316.326 72.4595 318.853 76.9109C320.126 79.0896 320.759 81.8058 320.487 84.4889C320.203 87.1775 319.02 89.6887 317.426 91.6955C314.17 95.7145 309.743 98.0316 305.365 99.5118C300.949 100.981 296.427 101.657 291.966 101.862C283.05 102.322 274.228 101.058 265.851 99.3843C261.507 98.464 257.285 97.3832 253.096 96.0305C248.913 94.6668 244.78 93.037 240.764 91.0967C232.72 87.2551 225.215 81.9056 219.015 75.2811C212.816 68.6565 207.955 60.8734 204.522 52.7023C201.055 44.5311 198.711 36.0828 197.005 27.6456L206.622 27.3185C205.472 35.9553 203.333 44.581 199.905 52.8242C196.522 61.073 191.539 68.8007 185.312 75.331C179.079 81.8613 171.613 87.1387 163.602 90.9581C155.597 94.8109 147.147 97.4108 138.626 99.0904L135.426 99.6892L132.248 100.199C130.093 100.521 127.882 100.787 125.727 100.992C121.377 101.38 116.971 101.535 112.544 101.253C108.116 100.964 103.656 100.166 99.3559 98.5694C97.206 97.7878 95.1117 96.7567 93.1619 95.4263C91.2231 94.0958 89.3954 92.4882 88.0344 90.4426C86.6456 88.4414 85.7845 85.9801 85.7512 83.5188C85.7068 81.0464 86.5289 78.6792 87.8177 76.7778C89.0788 74.8375 90.7786 73.3187 92.6119 72.1157C94.4506 70.9128 96.4339 70.0202 98.4671 69.3218C102.545 67.9691 106.794 67.3816 111.033 67.2984C115.277 67.1876 119.521 67.5978 123.682 68.3794C127.86 69.1333 131.932 70.3086 135.97 71.6391C139.959 72.9307 143.925 74.5993 147.781 76.3233C155.469 79.8989 162.908 84.001 170.129 88.4192C184.595 97.2278 198.466 106.862 212.493 116.031C219.476 120.666 226.52 125.156 233.631 129.508C240.703 133.915 247.958 137.978 255.241 141.953C269.834 149.836 284.856 156.948 300.455 162.752C304.438 164.227 308.315 165.568 312.298 166.827C316.276 168.091 320.281 169.271 324.342 170.242C332.436 172.282 340.685 173.745 349.002 174.322C357.307 174.898 365.712 174.593 373.789 172.897C377.828 172.071 381.761 170.813 385.438 169.122C389.121 167.448 392.521 165.214 395.265 162.458C397.999 159.709 399.982 156.35 400.698 152.813C401.454 149.276 400.815 145.651 399.282 142.452C398.526 140.844 397.499 139.336 396.299 137.967C395.121 136.581 393.754 135.329 392.271 134.209C389.332 131.936 385.927 130.184 382.35 128.837C375.178 126.115 367.312 125.067 359.451 124.896C355.518 124.779 351.551 124.957 347.585 125.3C343.63 125.611 339.636 126.159 335.73 126.814C328.158 128.188 320.353 130.478 312.682 133.1C304.988 135.739 297.333 138.738 289.766 142.036C274.59 148.555 259.679 156 244.897 163.739C230.114 171.494 215.482 179.643 200.961 188.036C193.722 192.272 186.428 196.44 179.307 200.881C175.707 203.048 172.135 205.26 168.613 207.555C166.863 208.714 165.085 209.839 163.369 211.048C162.502 211.646 161.658 212.261 160.824 212.899C160.008 213.548 159.152 214.174 158.502 215C159.524 213.121 161.108 211.624 162.558 210.089C164.052 208.575 165.563 207.084 167.135 205.654C170.274 202.799 173.462 200.005 176.701 197.266C183.251 191.895 189.867 186.589 196.683 181.561C210.288 171.456 224.354 161.976 238.847 153.112C253.352 144.265 268.307 136.077 283.878 128.865C291.688 125.317 299.638 121.963 307.876 119.141C311.998 117.733 316.176 116.42 320.464 115.355C322.609 114.812 324.77 114.313 326.964 113.87C328.081 113.67 329.125 113.448 330.308 113.271C331.442 113.099 332.675 112.883 333.675 112.778L335.241 112.583L335.752 112.523L336.164 112.484L336.991 112.406L340.297 112.123C342.519 112.023 344.724 111.863 346.952 111.863C351.396 111.78 355.868 111.99 360.329 112.5C369.234 113.526 378.155 115.788 386.36 119.995C390.449 122.096 394.343 124.724 397.715 128.028C399.404 129.663 400.965 131.47 402.293 133.46C403.626 135.439 404.798 137.563 405.593 139.863C407.231 144.414 407.526 149.598 406.015 154.193C404.576 158.8 401.709 162.719 398.271 165.652C394.86 168.656 390.899 170.763 386.855 172.393C382.8 174.022 378.589 175.081 374.361 175.852C365.884 177.293 357.318 177.526 348.829 177.055C331.842 176.151 315.037 172.903 298.638 168.457C282.184 163.939 266.123 157.735 251.097 149.625C243.547 145.634 236.303 141.138 229.148 136.548C222.026 131.908 215.127 126.969 208.327 121.947C194.756 111.841 181.795 101.119 168.191 91.3406C161.363 86.5011 154.353 81.9055 146.942 78.0251C139.52 74.2499 131.698 70.9738 123.488 69.3495C119.394 68.4958 115.222 68.008 111.039 68.0302C106.872 68.1078 102.667 68.7453 98.8448 70.3363C95.0506 71.8718 91.5675 74.4994 89.8509 77.9475C89.0121 79.666 88.7121 81.5398 89.001 83.2694C89.2898 85.0045 90.1454 86.5843 91.3675 87.8648C93.8062 90.4814 97.4338 91.9726 101.134 92.9095C104.883 93.8242 108.844 94.1235 112.822 94.1901C116.81 94.2067 120.838 93.9462 124.86 93.3974C126.888 93.1091 128.849 92.7876 130.843 92.4106L133.876 91.7897L136.859 91.0967C152.675 87.3549 167.707 80.3146 178.301 68.773C183.617 63.0465 187.662 56.2668 190.734 49.0104C193.795 41.7262 195.683 33.8986 196.944 25.916L201.055 0L206.566 25.589C208.421 33.5827 210.605 41.4324 213.788 48.7332C216.982 56.0174 221.015 62.8082 226.315 68.518C236.825 80.0374 252.013 86.8227 267.701 90.5146C275.773 92.4161 283.761 93.6634 291.722 93.6357C293.705 93.6357 295.666 93.5414 297.599 93.3252C299.532 93.1478 301.449 92.8652 303.282 92.4051C306.932 91.5181 310.454 90.0824 312.793 87.7153C313.948 86.5456 314.77 85.1819 315.115 83.6907C315.431 82.2105 315.309 80.5862 314.62 79.034C313.265 75.9075 310.098 73.3353 306.526 71.7942C302.932 70.181 298.877 69.4936 294.822 69.3162C290.755 69.1555 286.644 69.5768 282.6 70.3418C280.572 70.7077 278.567 71.2011 276.573 71.7333C275.573 71.9993 274.601 72.3098 273.617 72.5925C272.629 72.9196 271.584 73.2521 270.656 73.5958C266.768 75.026 262.951 76.6614 259.224 78.5019C251.758 82.1661 244.714 86.6952 237.786 91.3684C223.982 100.842 210.76 111.275 197.083 121.231C190.234 126.193 183.267 131.021 176.123 135.622C168.957 140.174 161.674 144.586 154.147 148.577C146.636 152.597 138.937 156.283 131.087 159.62C123.232 162.946 115.149 165.846 107.061 168.39C98.9337 170.94 90.662 173.058 82.2847 174.71C73.9075 176.356 65.4191 177.554 56.853 177.936C48.3035 178.368 39.6429 177.964 31.1657 176.273C26.9326 175.408 22.7495 174.172 18.7609 172.415C14.7889 170.641 10.9391 168.412 7.71156 165.363C4.4451 162.386 1.8786 158.5 0.673117 154.154C-0.510143 149.792 -0.0823938 145.091 1.55639 140.972C3.23407 136.847 6.00613 133.294 9.27259 130.434C12.5391 127.556 16.2721 125.284 20.1941 123.532C28.0325 119.951 36.5431 118.227 45.0315 117.573C49.2868 117.218 53.5532 117.251 57.8029 117.362C59.9306 117.412 62.0638 117.539 64.2081 117.639C66.3024 117.811 68.4245 117.883 70.5743 118.121C74.8519 118.532 79.1238 119.081 83.3569 119.868C87.6011 120.594 91.8175 121.486 95.995 122.523C104.367 124.546 112.544 127.252 120.416 130.583C124.36 132.224 128.215 134.065 132.037 135.949C135.859 137.829 139.659 139.758 143.42 141.742C150.931 145.734 158.341 149.886 165.613 154.265C180.201 162.935 194.367 172.254 208.088 182.171C211.51 184.66 214.915 187.177 218.299 189.727C221.665 192.294 224.981 194.927 228.276 197.588C231.581 200.232 234.798 202.998 237.97 205.809C239.553 207.217 241.114 208.658 242.619 210.155C244.086 211.668 245.691 213.132 246.747 214.989L246.741 215Z" fill="url(#paint0_linear_474_3932)"/>
  <defs>
    <linearGradient id="paint0_linear_474_3932" x1="174.112" y1="228.975" x2="250.722" y2="18.0402" gradientUnits="userSpaceOnUse">
      <stop stop-color="#D49546"/>
      <stop offset="0.09" stop-color="#68421D"/>
      <stop offset="0.29" stop-color="#D49546"/>
      <stop offset="0.33" stop-color="#D5994E"/>
      <stop offset="0.54" stop-color="#DEB380"/>
      <stop offset="0.64" stop-color="#DAA769"/>
      <stop offset="0.8" stop-color="#D49546"/>
      <stop offset="0.89" stop-color="#8B5D2A"/>
      <stop offset="0.94" stop-color="#68421D"/>
      <stop offset="1" stop-color="#B9803C"/>
    </linearGradient>
  </defs>
</svg>
