<svg width="705" height="521" viewBox="0 0 705 521" fill="none" xmlns="http://www.w3.org/2000/svg">
  <rect width="705" height="521" rx="36" fill="#7C223A" />
  <path
    d="M73.3121 205.011C58.7865 196.998 47.3043 185.876 38.7964 171.715C30.2194 157.554 26 141.596 26 123.912C26 106.228 30.2194 90.2011 38.7964 76.0398C47.3043 61.8785 58.7865 50.8258 73.3121 42.8817C87.7686 34.9375 103.747 31 121.108 31C138.47 31 154.379 34.9375 168.766 42.8817C183.154 50.8258 194.567 61.8785 203.005 76.0398C211.444 90.2011 215.663 106.158 215.663 123.912C215.663 141.665 211.444 157.623 203.005 171.784C194.567 185.945 183.085 196.998 168.628 205.08C154.102 213.093 138.263 217.1 121.108 217.1C103.954 217.1 87.8378 213.093 73.3121 205.08V205.011ZM147.67 153.202C153.895 145.948 157.077 136.208 157.077 123.912C157.077 111.616 153.964 101.599 147.67 94.3458C141.444 87.0925 132.591 83.5004 121.108 83.5004C109.626 83.5004 100.496 87.0925 94.2705 94.3458C88.0453 101.599 84.8635 111.478 84.8635 123.912C84.8635 136.346 87.9761 145.948 94.2705 153.202C100.496 160.455 109.488 164.047 121.108 164.047C132.729 164.047 141.444 160.455 147.67 153.202Z"
    fill="#EFB9BF" />
  <path d="M680 31L613.804 159.833V215.995H555.979V159.833L489.852 31H556.048L585.514 96.6255L614.842 31H680Z"
    fill="#EFB9BF" />
  <path
    d="M121.731 363.618H26V361.891H28.1443C34.0929 361.891 38.9347 357.055 39.0039 351.114V254.956C39.0039 249.429 33.8162 245.146 28.2134 245.146H26.0692V243.419H60.3774C67.7094 243.419 77.4623 241.623 80.6441 240.311V262.002H78.9149V258.893C78.9149 253.436 74.6955 249.015 69.4386 248.669H50.0711V301.791H82.3733C86.9386 301.722 90.6046 297.923 90.6046 293.364V290.808H92.2646V317.956H90.6046V315.4C90.6046 310.841 87.0077 307.111 82.5809 306.972H50.1402V358.437H86.3852C104.369 358.437 111.286 349.042 116.543 335.917V346.417C116.474 346.417 121.731 363.687 121.731 363.687V363.618Z"
    fill="#E5685F" />
  <path
    d="M174.3 305.867C208.124 332.946 193.391 378.677 152.096 378.677C110.802 378.677 101.395 340.96 124.567 315.884L126.089 317.058C107.482 341.65 119.794 372.529 149.122 372.529C178.45 372.529 193.183 336.193 166.415 314.709L135.842 290.393C127.956 284.107 125.881 274.989 125.881 268.841C125.881 254.817 136.187 240.242 155.347 240.242C174.507 240.242 165.308 240.932 170.15 241.969H176.859L177.205 262.969H175.545C175.337 251.502 166.207 245.354 155.901 245.354C145.595 245.354 135.427 254.127 135.427 265.387C135.427 276.647 137.294 276.37 142.828 280.86L174.231 305.867H174.3Z"
    fill="#E5685F" />
  <path
    d="M311.049 297.923C312.501 341.65 288.776 363.618 252.047 363.618C215.318 363.618 185.575 336.953 185.575 301.93C185.575 266.906 212.966 240.587 249.695 240.587C286.424 240.587 282.136 245.146 292.373 251.985L295.762 275.818H294.379C289.329 256.13 269.408 245.63 249.902 245.63C220.16 245.63 198.094 269.6 198.094 301.515C198.094 333.43 219.952 358.437 252.877 358.437C285.802 358.437 309.319 335.986 309.388 297.785H311.049V297.923Z"
    fill="#E5685F" />
  <path
    d="M417.916 302.137C417.916 339.025 393.43 363.618 357.876 363.618C322.323 363.618 297.837 339.025 297.837 302.137C297.837 265.248 322.323 240.656 357.876 240.656C393.43 240.656 417.916 265.248 417.916 302.137ZM405.119 302.137C405.119 268.288 386.236 245.699 357.876 245.699C329.517 245.699 310.634 268.288 310.634 302.137C310.634 335.986 329.517 358.575 357.876 358.575C386.236 358.575 405.119 335.986 405.119 302.137Z"
    fill="#E5685F" />
  <path
    d="M460.109 240.656C480.307 240.656 493.518 253.159 493.518 272.087C493.518 291.015 480.999 306.42 464.398 306.351C479.062 322.17 489.922 335.226 509.289 355.812C517.451 364.516 530.455 380.058 538.963 386.414C548.854 393.805 559.23 398.295 570.919 396.776V398.503C557.431 402.164 545.811 400.437 535.366 395.325C524.299 389.937 509.635 373.703 500.228 362.858C491.997 353.394 465.297 323.759 454.092 311.048C449.872 306.282 446.69 303.104 443.785 302.689V301.101C444.685 301.101 448.558 301.377 452.916 301.032C460.248 300.41 475.396 298.959 479.684 283.002C480.169 281.068 480.86 277.821 480.722 272.571C480.238 257.857 473.528 246.252 459.487 246.113H438.183V349.387C438.183 355.052 442.886 361.062 449.181 361.062H451.325V362.789H413.904V361.062H416.117C421.789 361.062 426.908 355.812 427.046 349.456V253.298C426.908 247.288 422.066 242.383 416.048 242.383H413.904V240.587H460.179L460.109 240.656Z"
    fill="#E5685F" />
  <path
    d="M583.716 243.765C591.117 243.765 601.146 241.969 604.328 240.587V262.347H602.599V259.238C602.599 253.712 598.241 249.153 592.846 248.946H560.405V351.114C560.544 357.055 565.386 361.891 571.334 361.891H573.479V363.618H535.989V361.891H538.202C544.081 361.891 548.923 357.193 549.2 351.252V248.946H516.759C511.295 249.153 507.006 253.712 507.006 259.238V262.347H505.277V240.587C508.459 241.969 518.489 243.696 525.89 243.765H583.785H583.716Z"
    fill="#E5685F" />
  <path
    d="M662.569 305.867C696.393 332.946 677.233 383.167 635.939 383.167C594.645 383.167 576.315 340.96 599.486 315.884L601.008 317.058C582.401 341.65 603.637 376.95 632.965 376.95C662.293 376.95 681.453 336.124 654.753 314.709L624.18 290.393C616.295 284.107 614.22 274.989 614.22 268.841C614.22 254.817 624.526 240.242 643.686 240.242C662.846 240.242 653.646 240.932 658.419 241.969H665.128L665.474 262.969H663.814C663.607 251.502 654.476 245.354 644.17 245.354C633.864 245.354 623.696 254.058 623.696 265.387C623.696 276.716 625.563 276.37 631.097 280.791L662.5 305.798L662.569 305.867Z"
    fill="#E5685F" />
  <path
    d="M404.359 131.165C404.359 130.889 404.013 134.895 404.013 137.866C404.013 140.836 403.944 153.961 403.252 159.626C402.56 165.29 404.082 175.514 404.082 175.929C404.082 176.343 405.534 161.975 405.811 155.481C406.088 148.988 405.396 139.109 405.119 136.968C405.119 136.968 404.359 131.441 404.359 131.234V131.165Z"
    fill="#EFB9BF" />
  <path
    d="M378.074 81.0826C378.212 79.7701 378.351 78.3885 378.351 77.076C378.351 75.7635 379.181 71.895 379.042 69.7536C378.904 67.6121 377.936 62.293 377.382 57.5956C377.382 57.5956 374.892 67.6121 375.031 72.3786C375.169 77.076 377.797 86.4017 377.936 87.4379C378.074 88.4741 377.936 82.3951 378.074 81.1517V81.0826Z"
    fill="#EFB9BF" />
  <path
    d="M420.821 54.8324C420.821 54.2797 419.299 59.5989 418.746 62.1548C418.192 64.6417 418.607 64.2963 417.916 66.8522C417.224 69.4081 416.256 72.8621 416.256 73.4148C416.256 73.9674 416.74 80.3918 416.74 81.6352C416.74 82.8786 416.74 83.0168 417.017 83.7767C417.224 84.5365 417.362 84.8129 417.847 85.5037C418.331 86.1945 418.123 86.4017 418.677 87.6451C419.23 88.8885 419.092 88.3359 419.645 89.4412C420.198 90.5465 420.198 91.03 420.406 92.4807C420.613 93.9313 424.694 98.9741 424.694 98.9741C424.694 98.9741 423.449 93.7932 422.481 87.7833C421.513 81.7734 422.066 79.2174 421.789 74.7273C421.513 70.3062 420.821 62.1548 420.959 58.5627C420.959 58.5627 420.821 55.3159 420.821 54.7633V54.8324Z"
    fill="#EFB9BF" />
  <path
    d="M403.874 194.166C404.912 189.814 404.704 187.12 404.566 184.287C404.566 184.287 404.359 182.629 404.289 182.146C404.289 181.662 403.39 186.498 403.39 189.883C403.39 193.337 402.906 201.212 402.975 202.248C402.975 203.284 402.837 198.518 403.874 194.166Z"
    fill="#EFB9BF" />
  <path
    d="M470.208 172.129V31H419.922C419.922 31.2072 419.922 31.3454 419.922 31.3454C419.922 31.3454 426.839 31.7599 429.19 36.3882C431.542 40.9474 430.297 60.0134 430.436 69.3391C430.574 78.6648 433.756 85.9182 434.032 91.6517C434.309 97.3853 435.692 123.774 435.9 124.603C436.107 125.363 437.491 134.412 437.491 136.484C437.491 138.557 437.145 142.08 436.592 142.909C436.038 143.738 431.266 146.846 430.643 147.537C429.951 148.228 429.882 147.675 429.882 147.192C429.882 146.708 429.882 146.501 429.882 146.501C429.882 146.501 429.398 146.639 428.845 146.846C428.36 147.053 428.291 146.086 428.706 145.119C429.121 144.221 429.813 143.392 429.813 143.392L430.643 142.287C430.643 142.287 429.813 142.632 429.536 141.803C429.26 141.044 429.536 139.662 429.675 139.178C429.675 138.695 430.366 135.655 430.159 133.307C430.09 131.718 430.02 129.369 430.02 127.78C429.882 130.336 429.26 135.724 426.977 141.044C423.795 148.642 420.752 168.537 419.368 177.241C417.985 185.945 419.922 188.294 417.57 201.004C416.671 205.978 415.357 211.159 414.042 215.926H525.959V171.991H470.208V172.129Z"
    fill="#EFB9BF" />
  <path
    d="M387.758 192.922C388.311 185.876 389.003 182.906 387.066 175.307C385.129 167.708 379.319 145.603 378.973 142.356C378.697 140.007 378.212 139.524 378.143 139.455C377.866 139.455 377.451 139.317 377.451 138.902C377.451 138.211 376.76 126.744 376.76 126.744C376.76 126.744 374.616 123.636 373.647 121.978C372.679 120.251 373.094 106.435 373.025 106.02C371.019 93.5169 367.768 84.4675 366.73 75.2108C365.9 67.6812 366.869 55.1778 367.284 47.3027C367.699 39.4277 369.981 33.4869 372.402 31.829C372.886 31.4836 373.44 31.2072 374.062 31H334.912V125.639L273.628 31H215.802V216.064H273.628V123.014L334.843 216.064H393.568C392.185 212.403 387.274 199.001 387.689 192.991L387.758 192.922Z"
    fill="#EFB9BF" />
  <path
    d="M422.343 483.056C422.343 481.26 422.896 479.671 424.072 478.428C425.179 477.184 426.562 476.562 428.153 476.562C429.744 476.562 431.058 477.184 432.165 478.428C433.271 479.671 433.825 481.26 433.825 483.056C433.825 484.852 433.271 486.441 432.165 487.753C431.058 489.066 429.675 489.687 428.153 489.687C426.631 489.687 425.179 489.066 424.072 487.753C422.965 486.441 422.343 484.921 422.343 483.056Z"
    fill="#EFB9BF" />
  <path
    d="M470.692 443.473L463.36 477.806C462.807 480.638 462.599 482.434 462.599 483.263C462.599 484.645 463.222 485.335 464.398 485.335C465.574 485.335 467.649 484.092 469.586 481.605C471.522 479.118 473.459 475.457 475.396 470.622H477.609C473.321 483.332 467.51 489.618 460.109 489.618C452.708 489.618 453.677 487.062 453.677 481.951C453.677 476.839 453.884 478.773 454.23 476.977C454.645 475.25 454.922 473.799 455.129 472.694L460.524 447.342H451.256L451.809 444.509H457.481C462.115 444.509 466.542 444.164 470.623 443.473H470.692ZM464.882 420.194C464.882 418.536 465.435 417.085 466.473 415.911C467.58 414.736 468.825 414.115 470.208 414.115C471.592 414.115 472.975 414.736 474.012 415.911C475.05 417.085 475.603 418.536 475.603 420.263C475.603 421.99 475.05 423.44 474.012 424.615C472.906 425.789 471.661 426.411 470.208 426.411C468.756 426.411 467.51 425.789 466.473 424.615C465.366 423.44 464.882 421.92 464.882 420.263V420.194Z"
    fill="#EFB9BF" />
  <path
    d="M502.372 443.611L499.882 455.7L500.089 455.907C505.623 447.411 511.295 443.197 517.105 443.197C522.915 443.197 521.048 443.957 522.431 445.407C523.815 446.858 524.506 448.861 524.506 451.279C524.506 453.697 524.23 454.042 523.745 456.598L519.319 477.184C518.834 479.325 518.627 480.914 518.627 481.95C518.627 483.747 519.18 484.645 520.218 484.645C523.123 484.645 526.028 480.569 529.002 472.487H531.285C529.417 478.289 527.066 482.572 524.368 485.197C521.67 487.891 518.904 489.204 516.068 489.204C511.572 489.204 509.358 486.786 509.358 482.02C509.358 477.253 509.704 477.944 510.465 474.628L514.546 455.977C514.546 455.769 514.684 455.148 514.961 454.181C515.168 453.213 515.307 452.177 515.307 451.141C515.307 448.654 514.408 447.411 512.678 447.411C510.949 447.411 508.044 449.276 504.516 453.006C500.989 456.736 498.153 463.852 496.008 474.283L493.103 488.306H483.835L492.273 447.411H483.835L484.388 444.578H490.959C495.455 444.578 499.259 444.233 502.372 443.611Z"
    fill="#EFB9BF" />
  <path
    d="M555.564 432.144L553.281 444.509H559.575L559.022 447.342H552.589L546.087 478.635C545.534 480.983 545.326 482.641 545.326 483.608C545.326 485.059 545.88 485.75 546.917 485.75C549.546 485.75 552.382 481.329 555.494 472.418H557.5C555.909 478.013 553.903 482.296 551.413 485.197C548.923 488.099 546.295 489.549 543.459 489.549C538.894 489.549 536.542 486.855 536.542 481.536C536.542 476.217 536.957 477.322 537.718 473.454L543.113 447.273H536.68L537.164 444.44H543.736L545.949 433.733C549.269 433.733 552.451 433.18 555.356 432.144H555.564Z"
    fill="#EFB9BF" />
  <path
    d="M584.407 443.473L577.075 477.806C576.522 480.638 576.315 482.434 576.315 483.263C576.315 484.645 576.937 485.335 578.113 485.335C579.289 485.335 581.364 484.092 583.301 481.605C585.237 479.118 587.174 475.457 589.111 470.622H591.324C587.036 483.332 581.226 489.618 573.824 489.618C566.423 489.618 567.392 487.062 567.392 481.951C567.392 476.839 567.599 478.773 567.945 476.977C568.36 475.25 568.637 473.799 568.844 472.694L574.239 447.342H564.971L565.524 444.509H571.196C575.83 444.509 580.257 444.164 584.338 443.473H584.407ZM578.597 420.194C578.597 418.536 579.151 417.085 580.188 415.911C581.295 414.736 582.54 414.115 583.923 414.115C585.307 414.115 586.69 414.736 587.728 415.911C588.765 417.085 589.318 418.536 589.318 420.263C589.318 421.99 588.765 423.44 587.728 424.615C586.621 425.789 585.376 426.411 583.923 426.411C582.471 426.411 581.226 425.789 580.188 424.615C579.081 423.44 578.597 421.92 578.597 420.263V420.194Z"
    fill="#EFB9BF" />
  <path
    d="M615.257 443.611L612.698 455.769L612.905 455.977C617.955 447.411 623.281 443.128 628.884 443.128C634.486 443.128 633.31 443.888 634.694 445.408C636.077 446.927 636.769 448.654 636.769 450.519C636.769 452.385 636.631 452.454 636.285 455.286L636.492 455.493C641.403 447.204 647.006 443.059 653.231 443.059C659.457 443.059 656.966 443.75 658.419 445.2C659.872 446.582 660.563 448.378 660.563 450.589C660.563 452.799 660.287 454.042 659.733 456.529L655.237 477.322C654.684 480.016 654.476 481.674 654.476 482.296C654.476 483.885 654.961 484.714 655.929 484.714C656.897 484.714 658.142 483.747 659.802 481.812C661.462 479.878 662.915 476.701 664.229 472.21H666.512C665.059 477.806 663.053 481.951 660.356 484.783C657.727 487.615 655.099 489.066 652.54 489.066C649.98 489.066 648.597 488.444 647.213 487.201C645.83 485.957 645.208 484.092 645.208 481.674C645.208 479.256 645.484 479.049 646.038 476.701L650.741 455.493C650.88 455.217 651.018 454.388 651.295 453.006C651.502 451.625 651.64 450.658 651.64 450.174C651.64 449.414 651.364 448.792 650.88 448.171C650.326 447.618 649.773 447.342 649.081 447.342C647.214 447.342 644.516 449.207 641.057 452.868C637.599 456.529 634.97 462.677 633.172 471.174L629.575 488.237H620.237L626.532 458.049C627.362 454.319 627.777 451.901 627.777 450.727C627.777 449.552 627.5 449.069 627.016 448.309C626.532 447.549 625.84 447.204 625.079 447.204C623.142 447.204 620.445 449.276 617.125 453.352C613.805 457.427 611.314 463.506 609.654 471.45L606.127 488.168H596.72L605.435 447.273H597.135L597.619 444.44H605.435C608.893 444.44 612.214 444.095 615.326 443.473L615.257 443.611Z"
    fill="#EFB9BF" />
  <path
    d="M394.121 489.826H34.7846C32.7786 489.826 31.1877 488.237 31.1877 486.233V481.329C31.1877 479.326 32.7786 477.737 34.7846 477.737H394.052C396.058 477.737 397.649 479.326 397.649 481.329V486.233C397.649 488.237 396.058 489.826 394.052 489.826H394.121Z"
    fill="url(#paint0_linear_0_1)" />
  <path
    d="M391.631 491H37.2747C33.2628 491 30.0118 487.753 30.0118 483.747C30.0118 479.74 33.2628 476.493 37.2747 476.493H391.631C395.643 476.493 398.894 479.74 398.894 483.747C398.894 487.753 395.643 491 391.631 491ZM37.2747 478.842C34.577 478.842 32.3636 481.053 32.3636 483.747C32.3636 486.441 34.577 488.651 37.2747 488.651H391.631C394.329 488.651 396.542 486.441 396.542 483.747C396.542 481.053 394.329 478.842 391.631 478.842H37.2747Z"
    fill="url(#paint1_linear_0_1)" />
  <defs>
    <linearGradient id="paint0_linear_0_1" x1="31.1877" y1="483.839" x2="397.649" y2="483.839"
      gradientUnits="userSpaceOnUse">
      <stop stop-color="#FDEC99" />
      <stop offset="0.1" stop-color="#FEF5C3" />
      <stop offset="0.2" stop-color="#FFF9D1" />
      <stop offset="0.7" stop-color="#C8951A" />
      <stop offset="0.9" stop-color="#DCB954" />
      <stop offset="1" stop-color="#F1DC8D" />
    </linearGradient>
    <linearGradient id="paint1_linear_0_1" x1="30.0118" y1="483.816" x2="398.894" y2="483.816"
      gradientUnits="userSpaceOnUse">
      <stop stop-color="#FDEC99" />
      <stop offset="0.1" stop-color="#FEF5C3" />
      <stop offset="0.2" stop-color="#FFF9D1" />
      <stop offset="0.7" stop-color="#C8951A" />
      <stop offset="0.9" stop-color="#DCB954" />
      <stop offset="1" stop-color="#F1DC8D" />
    </linearGradient>
  </defs>
</svg>
