<svg width="322" height="322" viewBox="0 0 322 322" fill="none" xmlns="http://www.w3.org/2000/svg">
  <g clip-path="url(#clip0_503_3997)">
    <path d="M240.861 0H81.1239C74.347 0.00266585 67.8483 2.69562 63.0558 7.48715C58.2634 12.2787 55.5691 18.7768 55.5651 25.5537V296.461C55.5718 303.237 58.2669 309.734 63.0588 314.525C67.8507 319.316 74.3478 322.01 81.1239 322.015H240.861C247.638 322.008 254.136 319.315 258.93 314.524C263.724 309.734 266.423 303.238 266.435 296.461V25.594C266.427 18.8157 263.729 12.3176 258.934 7.52648C254.14 2.73538 247.639 0.0429113 240.861 0.04025" fill="#405866"/>
    <path d="M224.288 19.5011H97.7018C92.333 19.5011 87.1834 21.6304 83.3823 25.422C79.5813 29.2136 77.4392 34.3579 77.4259 39.7267V254.395C77.4366 259.765 79.5778 264.911 83.3794 268.703C87.181 272.495 92.3322 274.623 97.7018 274.621H224.288C235.457 274.621 244.514 265.514 244.514 254.395V39.7066C244.514 28.5372 235.432 19.481 224.288 19.481" fill="#85CFEA"/>
    <path d="M157.478 19.5012H97.732C92.3632 19.5011 87.2136 21.6304 83.4126 25.422C79.6115 29.2136 77.4694 34.358 77.4561 39.7268V254.395C77.4668 259.765 79.608 264.911 83.4096 268.703C87.2112 272.495 92.3624 274.623 97.732 274.621H224.318C228.409 274.621 232.187 273.368 235.367 271.305C181.548 201.2 152.739 106.959 157.493 19.4911" fill="#28A6DE"/>
    <path d="M177.603 298.806C177.603 307.948 170.177 315.399 161.015 315.399C151.853 315.399 144.427 307.953 144.427 298.806C144.427 289.659 151.853 282.213 161.015 282.213C170.177 282.213 177.603 289.659 177.603 298.806ZM113.681 298.806C113.715 300.42 113.426 302.025 112.832 303.526C112.238 305.027 111.351 306.394 110.222 307.548C109.092 308.702 107.744 309.619 106.256 310.245C104.768 310.872 103.17 311.195 101.556 311.196C99.9415 311.197 98.3431 310.876 96.8544 310.251C95.3656 309.627 94.0164 308.712 92.8858 307.559C91.7552 306.407 90.8659 305.04 90.27 303.54C89.6741 302.039 89.3835 300.435 89.4154 298.821C89.478 295.646 90.7828 292.622 93.0498 290.398C95.3167 288.174 98.3651 286.927 101.541 286.925C104.717 286.923 107.767 288.166 110.036 290.387C112.306 292.609 113.615 295.631 113.681 298.806ZM208.344 298.806C208.297 300.428 208.577 302.044 209.165 303.556C209.754 305.069 210.64 306.448 211.771 307.612C212.902 308.776 214.255 309.701 215.75 310.333C217.245 310.965 218.851 311.291 220.474 311.291C222.097 311.291 223.704 310.965 225.199 310.333C226.694 309.701 228.047 308.776 229.178 307.612C230.309 306.448 231.195 305.069 231.784 303.556C232.372 302.044 232.651 300.428 232.605 298.806C232.605 295.589 231.327 292.503 229.052 290.229C226.777 287.954 223.692 286.676 220.474 286.676C217.257 286.676 214.172 287.954 211.897 290.229C209.622 292.503 208.344 295.589 208.344 298.806Z" fill="#CBD5DC"/>
  </g>
  <defs>
    <clipPath id="clip0_503_3997">
      <rect width="322" height="322" fill="white"/>
    </clipPath>
  </defs>
</svg>
