<svg width="256" height="256" viewBox="0 0 256 256" fill="none" xmlns="http://www.w3.org/2000/svg">
<path d="M144.27 45.9301C144.542 44.9148 145.011 43.9629 145.65 43.129C146.29 42.295 147.087 41.5952 147.997 41.0696C148.907 40.5439 149.912 40.2028 150.954 40.0656C151.996 39.9284 153.055 39.9979 154.07 40.2701C168.901 44.1395 182.432 51.8925 193.27 62.7304C204.108 73.5683 211.861 87.0994 215.73 101.93C216.002 102.945 216.072 104.004 215.934 105.046C215.797 106.088 215.456 107.093 214.931 108.003C214.405 108.913 213.705 109.71 212.871 110.35C212.037 110.99 211.085 111.458 210.07 111.73C209.394 111.908 208.699 111.998 208 112C206.238 112.001 204.526 111.42 203.128 110.347C201.731 109.275 200.726 107.772 200.27 106.07C197.116 93.9614 190.789 82.9132 181.942 74.0645C173.095 65.2158 162.048 58.8868 149.94 55.7301C148.924 55.4596 147.971 54.9914 147.136 54.3523C146.301 53.7132 145.6 52.9158 145.073 52.0056C144.547 51.0954 144.205 50.0903 144.067 49.0478C143.929 48.0053 143.998 46.9458 144.27 45.9301ZM141.94 87.7301C155.73 91.4101 164.59 100.28 168.27 114.07C168.726 115.772 169.731 117.275 171.128 118.347C172.526 119.42 174.238 120.001 176 120C176.699 119.998 177.394 119.908 178.07 119.73C179.085 119.458 180.037 118.99 180.871 118.35C181.705 117.71 182.405 116.913 182.931 116.003C183.456 115.093 183.797 114.088 183.934 113.046C184.072 112.004 184.002 110.945 183.73 109.93C178.61 90.7701 165.23 77.39 146.07 72.2701C144.02 71.7224 141.836 72.0116 139.999 73.0739C138.162 74.1363 136.823 75.8849 136.275 77.9351C135.727 79.9852 136.017 82.1689 137.079 84.0058C138.141 85.8427 139.89 87.1824 141.94 87.7301ZM214.37 166.46L167.26 145.35L167.13 145.29C164.684 144.244 162.016 143.824 159.368 144.069C156.719 144.313 154.173 145.214 151.96 146.69C151.699 146.862 151.449 147.049 151.21 147.25L126.87 168C111.45 160.51 95.53 144.71 88.04 129.49L108.82 104.78C109.02 104.53 109.21 104.28 109.39 104.01C110.834 101.803 111.711 99.2733 111.941 96.6458C112.171 94.0183 111.748 91.3746 110.71 88.9501V88.8301L89.54 41.6401C88.1674 38.4727 85.8073 35.8342 82.8119 34.1184C79.8165 32.4027 76.3466 31.7017 72.92 32.1201C59.3697 33.9031 46.9318 40.5577 37.9294 50.841C28.9269 61.1243 23.9755 74.333 24 88.0001C24 167.4 88.6 232 168 232C181.667 232.025 194.876 227.073 205.159 218.071C215.442 209.068 222.097 196.63 223.88 183.08C224.299 179.655 223.6 176.186 221.886 173.19C220.172 170.195 217.536 167.834 214.37 166.46Z" fill="#7C223A"/>
</svg>
