<svg width="927" height="395" viewBox="0 0 927 395" fill="none" xmlns="http://www.w3.org/2000/svg">
  <g filter="url(#filter0_f_0_1)">
    <path d="M506.741 305C505.386 303.392 503.614 302.217 501.936 300.959C500.225 299.739 498.492 298.553 496.753 297.372C493.259 295.033 489.703 292.788 486.165 290.52C482.615 288.264 479.026 286.074 475.443 283.885C471.871 281.673 468.277 279.5 464.666 277.355C450.239 268.757 435.673 260.43 420.947 252.47C406.192 244.559 391.265 237.048 376.133 230.174C368.605 226.664 361.156 223.006 353.573 219.58C345.99 216.193 338.207 213.111 330.085 211.387C328.074 210.949 325.991 210.666 323.903 210.344C321.842 210.128 319.781 209.84 317.692 209.762C313.525 209.48 309.348 209.541 305.193 209.834C296.904 210.439 288.621 212.085 281.094 215.505C277.344 217.224 273.828 219.43 270.806 222.158C267.778 224.868 265.289 228.172 263.828 231.875C262.39 235.579 262.134 239.681 263.256 243.439C264.401 247.187 266.712 250.552 269.728 253.168C272.7 255.846 276.289 257.836 280.055 259.355C283.827 260.874 287.816 261.916 291.86 262.609C299.971 263.95 308.304 264.078 316.559 263.385C333.113 262.054 349.357 257.802 365.161 252.564C373.1 249.897 380.816 246.876 388.443 243.539C396.076 240.213 403.559 236.549 410.869 232.552C425.524 224.602 439.595 215.572 453.478 206.137C467.41 196.779 481.054 186.834 495.381 177.743C502.558 173.219 509.963 168.995 517.674 165.331C525.412 161.728 533.512 158.751 541.995 157.16C546.228 156.356 550.561 155.962 554.922 156.073C559.277 156.151 563.677 156.833 567.921 158.352C572.076 159.954 576.326 162.46 578.853 166.911C580.126 169.09 580.759 171.806 580.487 174.489C580.203 177.178 579.02 179.689 577.426 181.695C574.17 185.715 569.743 188.032 565.365 189.512C560.949 190.981 556.427 191.657 551.966 191.862C543.05 192.322 534.228 191.058 525.851 189.384C521.507 188.464 517.285 187.383 513.096 186.031C508.913 184.667 504.78 183.037 500.764 181.097C492.72 177.255 485.215 171.906 479.015 165.281C472.816 158.657 467.955 150.873 464.522 142.702C461.055 134.531 458.711 126.083 457.005 117.646L466.622 117.318C465.472 125.955 463.333 134.581 459.905 142.824C456.522 151.073 451.539 158.801 445.312 165.331C439.079 171.861 431.613 177.139 423.602 180.958C415.597 184.811 407.147 187.411 398.626 189.09L395.426 189.689L392.248 190.199C390.093 190.521 387.882 190.787 385.727 190.992C381.377 191.38 376.971 191.535 372.544 191.253C368.116 190.964 363.656 190.166 359.356 188.569C357.206 187.788 355.112 186.757 353.162 185.426C351.223 184.096 349.395 182.488 348.034 180.443C346.646 178.441 345.785 175.98 345.751 173.519C345.707 171.046 346.529 168.679 347.818 166.778C349.079 164.838 350.779 163.319 352.612 162.116C354.451 160.913 356.434 160.02 358.467 159.322C362.545 157.969 366.794 157.382 371.033 157.298C375.277 157.188 379.521 157.598 383.682 158.379C387.86 159.133 391.932 160.309 395.97 161.639C399.959 162.931 403.925 164.599 407.781 166.323C415.469 169.899 422.908 174.001 430.129 178.419C444.595 187.228 458.466 196.862 472.493 206.031C479.476 210.666 486.52 215.156 493.631 219.508C500.703 223.915 507.958 227.978 515.241 231.953C529.834 239.836 544.856 246.948 560.455 252.752C564.438 254.227 568.315 255.568 572.298 256.827C576.276 258.091 580.281 259.271 584.342 260.242C592.436 262.282 600.685 263.745 609.002 264.322C617.307 264.898 625.712 264.593 633.789 262.897C637.828 262.071 641.761 260.813 645.438 259.122C649.121 257.448 652.521 255.214 655.265 252.458C657.999 249.709 659.982 246.35 660.698 242.813C661.454 239.276 660.815 235.651 659.282 232.452C658.526 230.844 657.499 229.336 656.299 227.967C655.121 226.581 653.754 225.329 652.271 224.209C649.332 221.936 645.927 220.184 642.35 218.837C635.178 216.115 627.312 215.067 619.451 214.896C615.518 214.779 611.551 214.957 607.585 215.3C603.63 215.611 599.636 216.159 595.73 216.814C588.158 218.188 580.353 220.478 572.682 223.1C564.988 225.739 557.333 228.738 549.766 232.036C534.59 238.555 519.679 246 504.897 253.739C490.114 261.494 475.482 269.643 460.961 278.036C453.722 282.272 446.428 286.44 439.307 290.881C435.707 293.048 432.135 295.26 428.613 297.555C426.863 298.714 425.085 299.839 423.369 301.048C422.502 301.646 421.658 302.261 420.824 302.899C420.008 303.548 419.152 304.174 418.502 305C419.524 303.121 421.108 301.624 422.558 300.089C424.052 298.575 425.563 297.084 427.135 295.654C430.274 292.799 433.462 290.005 436.701 287.266C443.251 281.895 449.867 276.589 456.683 271.561C470.288 261.456 484.354 251.976 498.847 243.112C513.352 234.265 528.307 226.077 543.878 218.865C551.688 215.317 559.638 211.963 567.876 209.141C571.998 207.733 576.176 206.42 580.464 205.355C582.609 204.812 584.77 204.313 586.964 203.87C588.081 203.67 589.125 203.448 590.308 203.271C591.442 203.099 592.675 202.883 593.675 202.778L595.241 202.583L595.752 202.523L596.164 202.484L596.991 202.406L600.297 202.123C602.519 202.023 604.724 201.863 606.952 201.863C611.396 201.78 615.868 201.99 620.329 202.5C629.234 203.526 638.155 205.788 646.36 209.995C650.449 212.096 654.343 214.724 657.715 218.028C659.404 219.663 660.965 221.47 662.293 223.46C663.626 225.439 664.798 227.563 665.593 229.863C667.231 234.414 667.526 239.598 666.015 244.193C664.576 248.8 661.709 252.719 658.271 255.652C654.86 258.656 650.899 260.763 646.855 262.393C642.8 264.022 638.589 265.081 634.361 265.852C625.884 267.293 617.318 267.526 608.829 267.055C591.842 266.151 575.037 262.903 558.638 258.457C542.184 253.939 526.123 247.735 511.097 239.625C503.547 235.634 496.303 231.138 489.148 226.548C482.026 221.908 475.127 216.969 468.327 211.947C454.756 201.841 441.795 191.119 428.191 181.341C421.363 176.501 414.353 171.906 406.942 168.025C399.52 164.25 391.698 160.974 383.488 159.35C379.394 158.496 375.222 158.008 371.039 158.03C366.872 158.108 362.667 158.745 358.845 160.336C355.051 161.872 351.568 164.499 349.851 167.948C349.012 169.666 348.712 171.54 349.001 173.269C349.29 175.004 350.145 176.584 351.368 177.865C353.806 180.481 357.434 181.973 361.134 182.909C364.883 183.824 368.844 184.124 372.822 184.19C376.81 184.207 380.838 183.946 384.86 183.397C386.888 183.109 388.849 182.788 390.843 182.411L393.876 181.79L396.859 181.097C412.675 177.355 427.707 170.315 438.301 158.773C443.617 153.047 447.662 146.267 450.734 139.01C453.795 131.726 455.683 123.899 456.944 115.916L461.055 90L466.566 115.589C468.421 123.583 470.605 131.432 473.788 138.733C476.982 146.017 481.015 152.808 486.315 158.518C496.825 170.037 512.013 176.823 527.701 180.515C535.773 182.416 543.761 183.663 551.722 183.636C553.705 183.636 555.666 183.541 557.599 183.325C559.532 183.148 561.449 182.865 563.282 182.405C566.932 181.518 570.454 180.082 572.793 177.715C573.948 176.546 574.77 175.182 575.115 173.691C575.431 172.211 575.309 170.586 574.62 169.034C573.265 165.907 570.098 163.335 566.526 161.794C562.932 160.181 558.877 159.494 554.822 159.316C550.755 159.155 546.644 159.577 542.6 160.342C540.572 160.708 538.567 161.201 536.573 161.733C535.573 161.999 534.601 162.31 533.617 162.593C532.629 162.92 531.584 163.252 530.656 163.596C526.768 165.026 522.951 166.661 519.224 168.502C511.758 172.166 504.714 176.695 497.786 181.368C483.982 190.842 470.76 201.275 457.083 211.231C450.234 216.193 443.267 221.021 436.123 225.622C428.957 230.174 421.674 234.586 414.147 238.577C406.636 242.597 398.937 246.283 391.087 249.62C383.232 252.946 375.149 255.846 367.061 258.39C358.934 260.94 350.662 263.058 342.285 264.71C333.907 266.356 325.419 267.554 316.853 267.936C308.303 268.368 299.643 267.964 291.166 266.273C286.933 265.408 282.75 264.172 278.761 262.415C274.789 260.641 270.939 258.412 267.712 255.363C264.445 252.386 261.879 248.5 260.673 244.154C259.49 239.792 259.918 235.091 261.556 230.972C263.234 226.847 266.006 223.294 269.273 220.434C272.539 217.556 276.272 215.284 280.194 213.532C288.033 209.951 296.543 208.227 305.031 207.573C309.287 207.218 313.553 207.251 317.803 207.362C319.931 207.412 322.064 207.539 324.208 207.639C326.302 207.811 328.424 207.883 330.574 208.121C334.852 208.532 339.124 209.081 343.357 209.868C347.601 210.594 351.817 211.486 355.995 212.523C364.367 214.546 372.544 217.252 380.416 220.583C384.36 222.224 388.215 224.065 392.037 225.949C395.859 227.829 399.659 229.758 403.42 231.742C410.931 235.734 418.341 239.886 425.613 244.265C440.201 252.935 454.367 262.254 468.088 272.171C471.51 274.66 474.915 277.177 478.299 279.727C481.665 282.294 484.981 284.927 488.276 287.588C491.581 290.232 494.798 292.998 497.97 295.809C499.553 297.217 501.114 298.658 502.619 300.155C504.086 301.668 505.691 303.132 506.747 304.989L506.741 305Z" fill="url(#paint0_linear_0_1)"/>
  </g>
  <g filter="url(#filter1_f_0_1)">
    <rect x="4" y="4" width="919" height="387" fill="white" fill-opacity="0.65"/>
  </g>
  <defs>
    <filter id="filter0_f_0_1" x="256" y="86" width="415" height="223" filterUnits="userSpaceOnUse" color-interpolation-filters="sRGB">
      <feFlood flood-opacity="0" result="BackgroundImageFix"/>
      <feBlend mode="normal" in="SourceGraphic" in2="BackgroundImageFix" result="shape"/>
      <feGaussianBlur stdDeviation="2" result="effect1_foregroundBlur_0_1"/>
    </filter>
    <filter id="filter1_f_0_1" x="0" y="0" width="927" height="395" filterUnits="userSpaceOnUse" color-interpolation-filters="sRGB">
      <feFlood flood-opacity="0" result="BackgroundImageFix"/>
      <feBlend mode="normal" in="SourceGraphic" in2="BackgroundImageFix" result="shape"/>
      <feGaussianBlur stdDeviation="2" result="effect1_foregroundBlur_0_1"/>
    </filter>
    <linearGradient id="paint0_linear_0_1" x1="434.112" y1="318.975" x2="510.722" y2="108.04" gradientUnits="userSpaceOnUse">
      <stop stop-color="#D49546"/>
      <stop offset="0.09" stop-color="#68421D"/>
      <stop offset="0.29" stop-color="#D49546"/>
      <stop offset="0.33" stop-color="#D5994E"/>
      <stop offset="0.54" stop-color="#DEB380"/>
      <stop offset="0.64" stop-color="#DAA769"/>
      <stop offset="0.8" stop-color="#D49546"/>
      <stop offset="0.89" stop-color="#8B5D2A"/>
      <stop offset="0.94" stop-color="#68421D"/>
      <stop offset="1" stop-color="#B9803C"/>
    </linearGradient>
  </defs>
</svg>
